<?xml version="1.0" encoding="UTF-8" standalone="no"?>
<svg width="27px" height="14px" viewBox="0 0 27 14" version="1.1" xmlns="http://www.w3.org/2000/svg" xmlns:xlink="http://www.w3.org/1999/xlink" xmlns:sketch="http://www.bohemiancoding.com/sketch/ns">
    <!-- Generator: Sketch 3.3.2 (12043) - http://www.bohemiancoding.com/sketch -->
    <title>Rectangle 348</title>
    <desc>Created with Sketch.</desc>
    <defs></defs>
    <g id="Projects-Overview" stroke="none" stroke-width="1" fill="none" fill-rule="evenodd" sketch:type="MSPage">
        <g id="Artboard-1" sketch:type="MSArtboardGroup" transform="translate(-1028.000000, -701.000000)" fill="#B00700">
            <g id="THIS-IS-A-BUTTON-+-5" sketch:type="MSLayerGroup" transform="translate(914.000000, 692.000000)">
                <g id="5" transform="translate(110.000000, 0.000000)" sketch:type="MSShapeGroup">
                    <path d="M27.2426407,15 L23.363961,11.1213203 C22.9734367,10.7307961 22.9734367,10.0976311 23.363961,9.70710678 C23.7544853,9.31658249 24.3876503,9.31658249 24.7781746,9.70710678 L30.4350288,15.363961 C30.8255531,15.7544853 30.8255531,16.3876503 30.4350288,16.7781746 L24.7781746,22.4350288 C24.3876503,22.8255531 23.7544853,22.8255531 23.363961,22.4350288 C22.9734367,22.0445046 22.9734367,21.4113396 23.363961,21.0208153 L27.3847763,17 L5.00329963,17 C4.45127869,17 4,16.5522847 4,16 C4,15.4438648 4.44919255,15 5.00329963,15 L27.2426407,15 L27.2426407,15 Z" id="Rectangle-348"></path>
                </g>
            </g>
        </g>
    </g>
</svg>