<?xml version="1.0" encoding="utf-8"?>
<!-- Generator: Adobe Illustrator 19.0.1, SVG Export Plug-In . SVG Version: 6.00 Build 0)  -->
<svg version="1.1" id="Layer_1" xmlns="http://www.w3.org/2000/svg" xmlns:xlink="http://www.w3.org/1999/xlink" x="0px" y="0px"
	 viewBox="0 0 658.8 329.4" style="enable-background:new 0 0 658.8 329.4;" xml:space="preserve">
<path d="M211.4,230.4v-4.6h2c0.4,0,0.7,0,0.9,0.1c0.2,0.1,0.4,0.2,0.5,0.4c0.1,0.2,0.2,0.4,0.2,0.7c0,0.3-0.1,0.6-0.3,0.8
	c-0.2,0.2-0.5,0.4-1,0.4c0.2,0.1,0.3,0.2,0.4,0.2c0.2,0.2,0.3,0.4,0.5,0.6l0.8,1.2h-0.8l-0.6-1c-0.2-0.3-0.3-0.5-0.4-0.6
	c-0.1-0.1-0.2-0.2-0.3-0.3c-0.1-0.1-0.2-0.1-0.3-0.1c-0.1,0-0.2,0-0.3,0H212v2H211.4z M212,227.9h1.3c0.3,0,0.5,0,0.6-0.1
	c0.2-0.1,0.3-0.1,0.4-0.3c0.1-0.1,0.1-0.3,0.1-0.4c0-0.2-0.1-0.4-0.2-0.5c-0.2-0.1-0.4-0.2-0.7-0.2H212V227.9z M213.4,223.4
	c-2.6,0-4.8,2.2-4.8,4.8c0,2.6,2.1,4.8,4.8,4.8c2.6,0,4.7-2.1,4.7-4.8C218.2,225.5,216.1,223.4,213.4,223.4L213.4,223.4z
	 M213.4,224.4c2.1,0,3.8,1.7,3.8,3.8c0,2.1-1.7,3.8-3.8,3.8c-2.1,0-3.8-1.7-3.8-3.8C209.7,226.1,211.4,224.4,213.4,224.4
	L213.4,224.4z M141.7,254.3c0-0.4,6.3-9.7,13.6-20.1c2.6-3.7,3.5-5.8,3.8-8.8c0.2-2.1,1.1-6.5,2-9.7c0.9-3.2,1.5-6,1.3-6.2
	c-0.2-0.2-2,0.1-3.8,0.8c-4.1,1.5-6.8,1.5-11.5,0.3c-3-0.8-4.1-0.7-7.1,0.4c-3.4,1.3-3.8,1.3-6.9,0c-3.1-1.3-3.8-1.3-11.4,0.1
	c-14.1,2.5-18.6,1.1-28-8.5c-5.8-5.9-8-7.3-9.1-5.5c-0.3,0.4-1.3,0.8-2.4,0.8c-1.4,0-2.6-1.1-4.4-4c-1.4-2.2-3.6-4.7-4.8-5.6
	c-6.7-4.8-14.4-1.3-14.4,6.6c0,3.2,6.5,13,9.8,14.7c4.3,2.2,1.9,5.6-3.6,4.9c-2.8-0.4-4.1-1.2-7.8-5.3c-4-4.4-4.8-4.9-7.6-4.8
	c-1.7,0-4.6,0.7-6.4,1.5c-4.6,2.1-10.7,3.3-17,3.3h-5.5l-1.2-4.6c-2.8-10.5-3.3-14.5-3.3-27.4c0-9.8,0.4-14.9,1.5-20
	c5.9-27.4,21.1-49.5,44.1-64.4C72.6,85.3,82.9,81,96.1,78.2c9.4-2,30.6-2.1,39.8-0.1c31.3,6.7,57.1,26.5,70.6,53.8
	c7.5,15.3,10.4,27.8,10.4,45.2c0,17-2.8,29.7-10,44.4c-5.2,10.7-4.5,10.2-12,9.2c-6.8-0.9-15.8-0.1-21.6,1.8
	c-2.6,0.8-3.3,1.5-3.6,3.4c-0.3,2-1.1,2.6-5.2,4.2c-3.4,1.3-6.2,3.3-10,7c-2.9,2.8-5.9,5.5-6.8,5.9
	C145.7,253.9,141.7,254.8,141.7,254.3L141.7,254.3z M160.9,202.3c17.8-2.7,30.2-10,35.3-20.8c4.4-9.3,2.5-17.8-5.4-23.8
	c-3.8-2.9-13.4-7-16.2-7c-0.8,0-2.1,1.5-3.2,3.4c-1.6,3-6,7-7.6,7c-0.3,0,0.5-2,1.9-4.5c1.4-2.7,2.4-5.7,2.4-7.4
	c0-7.7-8.3-30.4-15.1-40.9c-3.1-4.8-4.7-6.4-8.1-8.3c-6-3.3-13.2-3.7-22.6-1.3c-5.6,1.4-8.2,1.7-13.6,1.3
	c-21.8-1.6-20.9-1.6-24.5,0.3c-4.6,2.3-6,5.1-8.9,16.8c-3.1,12.7-3.1,16.7-0.4,20c2.8,3.4,12,7.6,21.1,9.7
	c10.9,2.5,18.4,4.7,20.4,6.1c1,0.6,2.2,2.3,2.8,3.7c2.3,6.1,3.5,8.6,4.9,9.9c0.8,0.7,1.5,1.8,1.5,2.3c0,5.8-41.3-7.1-52-16.2
	c-4.6-3.9-5.9-6.8-5.4-11.7l0.5-3.9l-10.6,0.3c-8.9,0.3-11.2,0.6-14.4,2.2c-11,5.3-10.5,14.2,1.5,25.7c17.6,16.7,53.6,33,82.2,37.2
	C137.5,203.7,151.7,203.7,160.9,202.3L160.9,202.3L160.9,202.3z M86.2,125c-2.9-2.9-3.9-4.6-3.9-6.3c0-4,2.9-6.1,5.2-3.8
	c3.5,3.4,4.8,3.8,12.7,3.2c8.3-0.5,13,0.4,13.9,2.7c0.8,2.1-0.6,2.7-7.7,3.5c-7.6,0.8-11.3,1.9-12.7,3.5
	C92.1,129.9,90.3,129.2,86.2,125L86.2,125z M131.1,112.4c-3.7-0.3-3.9-1.3-0.5-2.2c3.1-0.9,4.8-3.2,3.1-4.3
	c-1.8-1.1-7.9-1.8-10.6-1.2c-1.6,0.4-2.3,0.3-1.9-0.3c0.8-1.4,9.3-2.8,14.1-2.3c5,0.5,9.1,2.2,9.9,4.3
	C146.6,109.9,139.1,113.1,131.1,112.4L131.1,112.4z M128.3,229.9c-1.4-0.9-3.5-1.6-4.6-1.6c-2.3,0-3.4-1.9-1.9-3.6
	c1.2-1.5,5.4-1.5,8,0c2.8,1.6,5.1,1.5,6.8-0.4c1.9-2.2,2.8-2,2.8,0.5c0,2.6-4,6.7-6.5,6.7C131.8,231.5,129.7,230.7,128.3,229.9
	L128.3,229.9L128.3,229.9z M128.3,229.9"/>
<path d="M635.9,231.8v-4.6h2c0.4,0,0.7,0,0.9,0.1c0.2,0.1,0.4,0.2,0.5,0.4c0.1,0.2,0.2,0.4,0.2,0.7c0,0.3-0.1,0.6-0.3,0.8
	c-0.2,0.2-0.5,0.4-1,0.4c0.2,0.1,0.3,0.2,0.4,0.2c0.2,0.2,0.3,0.4,0.5,0.6l0.8,1.2h-0.8l-0.6-1c-0.2-0.3-0.3-0.5-0.4-0.6
	c-0.1-0.1-0.2-0.2-0.3-0.3c-0.1-0.1-0.2-0.1-0.3-0.1c-0.1,0-0.2,0-0.3,0h-0.7v2H635.9L635.9,231.8z M636.5,229.2h1.3
	c0.3,0,0.5,0,0.7-0.1c0.2-0.1,0.3-0.1,0.4-0.3c0.1-0.1,0.1-0.3,0.1-0.4c0-0.2-0.1-0.4-0.2-0.5c-0.2-0.1-0.4-0.2-0.7-0.2h-1.4V229.2
	L636.5,229.2z M638,224.7c-2.6,0-4.8,2.2-4.8,4.8s2.1,4.8,4.8,4.8c2.6,0,4.7-2.1,4.7-4.8S640.6,224.7,638,224.7L638,224.7z
	 M638,225.7c2.1,0,3.8,1.7,3.8,3.8s-1.7,3.8-3.8,3.8c-2.1,0-3.8-1.7-3.8-3.8S635.9,225.7,638,225.7L638,225.7z M417.4,233.1
	c5.9-1.2,9.8-3.4,13.9-7.6l3.5-3.7l-0.1,10.8l16.2,0.2l-0.4-96.6l-17.4-4.5l-0.6,37.7l-3.2-2.8c-1.9-1.6-5.1-3.3-7.9-4.1
	c-15.8-4.4-31,4.1-37,20.7c-2.4,6.6-2.6,21.9-0.4,28.4c3.8,11.2,11.9,19.2,21.9,21.5C410.1,234.1,412.5,234.1,417.4,233.1
	L417.4,233.1L417.4,233.1z M412,218.6c-4.1-1.4-6.4-3.5-8.8-8c-2-3.6-2.4-5.4-2.6-11.6c-0.4-8.6,0.9-13.5,4.7-18.1
	c7.3-8.9,20.4-7.5,25.6,2.7c2.2,4.4,2.3,21.9,0.1,26.8C427.7,217.6,419.3,221.2,412,218.6L412,218.6L412,218.6z M557.4,233.1
	c5.6-1.2,9.6-3.3,13.4-7.1l3.1-3.1l0.5,4.8l0.5,4.8h2.9h2.9l-0.2-23.8c-0.2-24.1-0.8-30.3-3.4-35.4c-1.9-3.6-6.1-7.6-9.6-9.1
	c-7-2.9-17.9-2.3-26.2,1.5c-4.4,2-4.6,2.3-3.4,5.5l0.8,2l4.6-2.1c6.1-2.8,14.8-3.4,19.8-1.5c6.5,2.5,10,8.3,10,16.7l0,3.8h-5.1
	c-11.5,0-24.5,4.2-29.9,9.6c-4.4,4.4-6.1,8.5-6.1,14.8c-0.1,10.2,5.3,16.7,15.9,19.1C550.9,234.1,553.1,234,557.4,233.1L557.4,233.1
	L557.4,233.1z M546,226.1c-4.4-2.4-5.9-5.1-6.3-11c-0.4-6.3,0.6-9,4.7-12.7c3.9-3.6,11.4-5.9,21.2-6.6l7.6-0.5v9.2
	c0,8.9-0.1,9.3-2.6,13.5c-3.7,6.2-8.4,8.9-16,9.4C550,227.6,548.3,227.4,546,226.1L546,226.1z M621.2,233.2c2.3-0.4,4.4-0.9,4.5-1.1
	c0.1-0.1,0-1.4-0.2-2.8l-0.5-2.5l-5,0.5c-6.1,0.6-9.3-0.8-11.2-4.8c-1.1-2.4-1.3-6.3-1.3-28v-25.3h9.6h9.6v-2.8v-2.8h-9.6h-9.6v-7.2
	c0-4-0.2-7.2-0.5-7.2c-0.3,0-1.9,0.4-3.6,0.9l-3.1,0.9v6.2v6.2l-5.8,0.2l-5.8,0.2l-0.2,2.6l-0.3,2.6h6h6l0.2,26.6
	c0.2,25.4,0.3,26.7,2,29.8c2.3,4.2,4.2,5.9,8.4,7.2C615.3,234.1,616,234.1,621.2,233.2L621.2,233.2z M366.1,230.9l5.3-1.7l-1.2-5.8
	c-0.7-3.2-1.3-5.9-1.4-6.1c-0.1-0.2-2.5,0.3-5.3,1c-3,0.8-8.4,1.3-13.1,1.3c-7.1,0-8.5-0.2-12.3-2.2c-5-2.6-8.7-7.2-9.3-11.9
	l-0.4-3.1h23.1h23.1l-0.1-9.2c-0.1-7.5-0.4-10-1.8-13.5c-5.3-13-15.1-19.1-29.2-18.3c-14,0.8-24.1,8.2-29.2,21.3
	c-4.9,12.3-3,29.4,4.2,38.5c3.6,4.5,9.5,8.6,15.3,10.5C340.4,233.8,358.3,233.4,366.1,230.9L366.1,230.9L366.1,230.9z M328.4,188.6
	c0-2.6,3.7-9.4,6.3-11.6c7.4-6.3,17.4-4.3,21.8,4.2c0.9,1.7,1.6,4.3,1.6,5.9v2.8h-14.8C329.7,190,328.4,189.8,328.4,188.6
	L328.4,188.6z M286,210.4c0.4-23.5,0.5-24,5.3-28.6c3-2.9,5.9-3.9,11.1-3.9h4.3v-8.5v-8.5l-4.8,0.4c-7.5,0.7-14.4,5.5-17.3,12.2
	l-1,2.4l0-2.9c0-1.6-0.3-4.6-0.5-6.6l-0.5-3.7h-7.4h-7.4l0,70.3l17.8,0L286,210.4L286,210.4L286,210.4z M473.2,207.6
	c0.4-27.1,0.4-26.8,6.3-32.7c4-4,8.4-6,14.1-6.4c6.8-0.4,12.5,2.6,15.7,8.2c3.2,5.7,3.9,11.9,3.9,35.4l0,20.2h6.4V208
	c0-22,0-24.9-1.6-29.4c-9-25.2-35.2-16.9-44.8-4.2l-0.4-32.5l-6.8-1.7v92.2l6.9,0L473.2,207.6L473.2,207.6L473.2,207.6z
	 M473.2,207.6"/>
</svg>
