<?xml version="1.0" encoding="utf-8"?>
<!-- Generator: Adobe Illustrator 19.0.1, SVG Export Plug-In . SVG Version: 6.00 Build 0)  -->
<svg version="1.1" id="Layer_1" xmlns="http://www.w3.org/2000/svg" xmlns:xlink="http://www.w3.org/1999/xlink" x="0px" y="0px"
	 viewBox="0 0 160 80" style="enable-background:new 0 0 160 80;" xml:space="preserve">
<style type="text/css">
	.st0{fill:#FFFFFF;}
</style>
<path d="M104.5,37.6c0.9,0,2.1-0.3,2.1,1.1c0,1.3-1.2,1-2.1,1.1V37.6L104.5,37.6z M104.5,43.9V41h1.2c1.7-0.1,2.6-1,2.6-2.3
	c0-1.9-1.4-2.3-3.1-2.3h-2.3v7.6H104.5L104.5,43.9z"/>
<path d="M111.6,41l1.1-3.2h0l1,3.2H111.6L111.6,41z M110.6,43.9l0.6-1.6h3l0.5,1.6h1.6l-2.6-7.6h-1.9l-2.7,7.6H110.6L110.6,43.9z"/>
<path d="M119,37.6h1.4c0.7,0,1.1,0.3,1.1,1c0,0.7-0.4,1-1.1,1H119V37.6L119,37.6z M119,40.8h1.7c0.5,0,0.6,0.6,0.7,1
	c0.1,0.7,0.1,1.4,0.3,2h1.8c-0.3-0.4-0.4-1.3-0.4-1.8c-0.1-1.1-0.1-1.8-1.4-2v0c0.9-0.2,1.6-0.8,1.6-1.8c0-1.5-1.3-2-2.6-2h-3.2v7.6
	h1.6V40.8L119,40.8z"/>
<polygon points="124.2,36.3 130.3,36.3 130.3,37.6 128.1,37.6 128.1,43.9 126.4,43.9 126.4,37.6 124.2,37.6 124.2,36.3 "/>
<polygon points="136,43.9 133,37.6 132.9,37.6 132.9,43.9 131.4,43.9 131.4,36.3 133.8,36.3 136.7,42.3 136.8,42.2 136.8,36.3 
	138.3,36.3 138.3,43.9 136,43.9 "/>
<polygon points="139.8,36.3 144.9,36.3 144.9,37.6 141.4,37.6 141.4,39.3 144.7,39.3 144.7,40.6 141.4,40.6 141.4,42.6 145,42.6 
	145,43.9 139.8,43.9 139.8,36.3 "/>
<path d="M148.1,37.6h1.4c0.7,0,1.1,0.3,1.1,1c0,0.7-0.4,1-1.1,1h-1.4V37.6L148.1,37.6z M148.1,40.8h1.7c0.5,0,0.6,0.6,0.7,1
	c0.1,0.7,0.1,1.4,0.3,2h1.8c-0.3-0.4-0.4-1.3-0.4-1.8c-0.1-1.1-0.1-1.8-1.4-2v0c0.9-0.2,1.6-0.8,1.6-1.8c0-1.5-1.3-2-2.6-2h-3.2v7.6
	h1.6V40.8L148.1,40.8z"/>
<polygon points="95.9,50.5 7.2,50.5 7.2,30.2 95.9,30.2 95.9,50.5 "/>
<path class="st0" d="M46.2,41.8h5.2l-2.7-4.4l-5,8l-2.3,0l6.1-9.6c0.3-0.4,0.7-0.6,1.2-0.6c0.5,0,0.9,0.2,1.2,0.6l6.1,9.6l-2.3,0
	l-1.1-1.8h-5.3L46.2,41.8L46.2,41.8z M70,43.6v-8.3H68v9.1c0,0.2,0.1,0.5,0.3,0.7c0.2,0.2,0.4,0.3,0.7,0.3h8.9l1.2-1.8H70L70,43.6z
	 M37.8,42.1c1.9,0,3.4-1.5,3.4-3.4c0-1.9-1.5-3.4-3.4-3.4h-8.5v10.1h1.9v-8.3h6.4c0.9,0,1.6,0.7,1.6,1.6c0,0.9-0.7,1.6-1.6,1.6h-5.5
	l5.8,5.1h2.8l-3.9-3.3H37.8L37.8,42.1z M17.4,45.4c-2.8,0-5.1-2.3-5.1-5.1c0-2.8,2.3-5.1,5.1-5.1h5.9c2.8,0,5,2.3,5,5.1
	c0,2.8-2.3,5.1-5,5.1L17.4,45.4L17.4,45.4z M23.1,43.6c1.8,0,3.3-1.5,3.3-3.3c0-1.8-1.5-3.3-3.3-3.3h-5.6c-1.8,0-3.3,1.5-3.3,3.3
	c0,1.8,1.5,3.3,3.3,3.3H23.1L23.1,43.6z M60,45.4c-2.8,0-5-2.3-5-5.1c0-2.8,2.3-5.1,5-5.1h7l-1.1,1.8h-5.7c-1.8,0-3.3,1.5-3.3,3.3
	c0,1.8,1.5,3.3,3.3,3.3h7L66,45.4H60L60,45.4z M83.8,43.6c-1.5,0-2.8-1-3.1-2.4h8.3l1.1-1.8h-9.5c0.4-1.4,1.7-2.4,3.2-2.4h5.7
	l1.1-1.8h-7c-2.8,0-5,2.3-5,5.1c0,2.8,2.3,5.1,5,5.1h6l1.1-1.8H83.8L83.8,43.6z"/>
<path class="st0" d="M91.7,36.4c0-0.5,0.4-0.9,0.9-0.9c0.5,0,0.9,0.4,0.9,0.9c0,0.5-0.4,0.9-0.9,0.9C92.1,37.3,91.7,36.9,91.7,36.4
	L91.7,36.4z M92.6,37.5c0.6,0,1.1-0.5,1.1-1.1c0-0.6-0.5-1.1-1.1-1.1c-0.6,0-1.1,0.5-1.1,1.1C91.4,37,91.9,37.5,92.6,37.5L92.6,37.5
	z M92.5,35.7c0.2,0,0.2,0,0.3,0C93,35.8,93,36,93,36.1c0,0,0,0.1,0,0.1c0,0.1,0,0.2-0.2,0.2c0,0,0,0-0.1,0l0.3,0.5h-0.3l-0.3-0.5
	h-0.2V37h-0.2v-1.3H92.5L92.5,35.7z M92.5,36.3c0.1,0,0.2,0,0.2-0.1c0,0,0-0.1,0-0.1c0-0.1,0-0.1-0.1-0.1c-0.1,0-0.1,0-0.2,0h-0.1
	v0.4H92.5L92.5,36.3z"/>
</svg>
