<?xml version="1.0" encoding="utf-8"?>
<!-- Generator: Adobe Illustrator 19.0.1, SVG Export Plug-In . SVG Version: 6.00 Build 0)  -->
<svg version="1.1"
	 id="svg3358" xmlns:cc="http://creativecommons.org/ns#" xmlns:svg="http://www.w3.org/2000/svg" xmlns:rdf="http://www.w3.org/1999/02/22-rdf-syntax-ns#" xmlns:dc="http://purl.org/dc/elements/1.1/"
	 xmlns="http://www.w3.org/2000/svg" xmlns:xlink="http://www.w3.org/1999/xlink" x="0px" y="0px" viewBox="-199 76 800 450"
	 style="enable-background:new -199 76 800 450;" xml:space="preserve">
<style type="text/css">
	.st0{clip-path:url(#SVGID_2_);}
</style>
<g id="layer1" transform="translate(0,-602.36218)">
	<path id="path268" d="M72,1097.2H39.4V967.9H72V1097.2z"/>
	<g id="g270" transform="matrix(10.337276,0,0,-10.337276,-861.34511,8446.2018)">
		<g>
			<defs>
				<polygon id="SVGID_1_" points="65.2,706.2 142.4,706.2 142.4,750.2 65.2,750.2 65.2,706.2 				"/>
			</defs>
			<clipPath id="SVGID_2_">
				<use xlink:href="#SVGID_1_"  style="overflow:visible;"/>
			</clipPath>
			<g id="g272" class="st0">
				<g id="g278" transform="translate(134.9958,727.2001)">
					<path id="path280" d="M-19.3-7.4c-0.1,0.1-1.1,0.7-2.7,0.7c-2,0-3.5-1.4-3.5-3.3c0-1.9,1.4-3.3,3.5-3.3c1.5,0,2.5,0.6,2.7,0.7
						v-3.4c-0.4-0.1-1.5-0.4-2.9-0.4c-3.6,0-6.7,2.4-6.7,6.5c0,3.7,2.8,6.5,6.7,6.5c1.5,0,2.6-0.4,2.9-0.4V-7.4z"/>
				</g>
				<g id="g282" transform="translate(102.0426,727.2001)">
					<path id="path284" d="M-19.3-7.4c-0.1,0.1-1.1,0.7-2.7,0.7c-2,0-3.5-1.4-3.5-3.3c0-1.9,1.4-3.3,3.5-3.3c1.5,0,2.5,0.6,2.7,0.7
						v-3.4c-0.4-0.1-1.5-0.4-2.9-0.4c-3.5,0-6.7,2.4-6.7,6.5c0,3.7,2.8,6.5,6.7,6.5c1.5,0,2.6-0.4,2.9-0.4V-7.4z"/>
				</g>
				<g id="g286" transform="translate(144.9274,727.8212)">
					<path id="path288" d="M-19.3-7.4c-1.9,0-3.3-1.5-3.3-3.3c0-1.8,1.4-3.3,3.3-3.3c1.9,0,3.3,1.5,3.3,3.3
						C-16-8.8-17.4-7.4-19.3-7.4 M-12.6-10.6c0-3.6-2.8-6.5-6.6-6.5s-6.6,2.9-6.6,6.5c0,3.6,2.8,6.5,6.6,6.5S-12.6-7.1-12.6-10.6"/>
				</g>
				<g id="g290" transform="translate(121.5124,727.9413)">
					<path id="path292" d="M-19.3-7.4c0,0-1.4,0.4-2.5,0.4c-1.3,0-2-0.4-2-1c0-0.8,0.9-1,1.4-1.2l0.9-0.3c2-0.7,3-2.1,3-3.6
						c0-3.1-2.8-4.2-5.2-4.2c-1.7,0-3.3,0.3-3.4,0.3v2.9c0.3-0.1,1.6-0.5,3-0.5c1.6,0,2.3,0.5,2.3,1.2c0,0.6-0.6,1-1.4,1.2
						c-0.2,0.1-0.5,0.2-0.7,0.2c-1.8,0.6-3.2,1.6-3.2,3.7c0,2.3,1.8,3.9,4.7,3.9c1.5,0,3-0.4,3.1-0.4V-7.4z"/>
				</g>
				<g id="g294" transform="translate(89.154,744.2304)">
					<path id="path296" d="M-19.3-7.4c0,0.9-0.7,1.6-1.6,1.6c-0.9,0-1.6-0.7-1.6-1.6v-3.3c0-0.9,0.7-1.6,1.6-1.6
						c0.9,0,1.6,0.7,1.6,1.6V-7.4z"/>
				</g>
				<g id="g298" transform="translate(97.7633,748.5409)">
					<path id="path300" d="M-19.3-7.4c0,0.9-0.7,1.6-1.6,1.6c-0.9,0-1.6-0.7-1.6-1.6v-7.6c0-0.9,0.7-1.6,1.6-1.6
						c0.9,0,1.6,0.7,1.6,1.6V-7.4z"/>
				</g>
				<g id="g302" transform="translate(106.3727,754.4384)">
					<path id="path304" d="M-19.3-7.4c0,0.9-0.7,1.6-1.6,1.6c-0.9,0-1.6-0.7-1.6-1.6V-24c0-0.9,0.7-1.6,1.6-1.6
						c0.9,0,1.6,0.7,1.6,1.6V-7.4z"/>
				</g>
				<g id="g306" transform="translate(114.9821,748.5409)">
					<path id="path308" d="M-19.3-7.4c0,0.9-0.7,1.6-1.6,1.6c-0.9,0-1.6-0.7-1.6-1.6v-7.6c0-0.9,0.7-1.6,1.6-1.6
						c0.9,0,1.6,0.7,1.6,1.6V-7.4z"/>
				</g>
				<g id="g310" transform="translate(123.5817,744.2304)">
					<path id="path312" d="M-19.3-7.4c0,0.9-0.7,1.6-1.6,1.6c-0.9,0-1.6-0.7-1.6-1.6v-3.3c0-0.9,0.7-1.6,1.6-1.6
						c0.9,0,1.6,0.7,1.6,1.6V-7.4z"/>
				</g>
				<g id="g314" transform="translate(132.195,748.5409)">
					<path id="path316" d="M-19.3-7.4c0,0.9-0.7,1.6-1.6,1.6c-0.9,0-1.6-0.7-1.6-1.6v-7.6c0-0.9,0.7-1.6,1.6-1.6
						c0.9,0,1.6,0.7,1.6,1.6V-7.4z"/>
				</g>
				<g id="g318" transform="translate(140.8102,754.4384)">
					<path id="path320" d="M-19.3-7.4c0,0.9-0.7,1.6-1.6,1.6c-0.9,0-1.6-0.7-1.6-1.6V-24c0-0.9,0.7-1.6,1.6-1.6
						c0.9,0,1.6,0.7,1.6,1.6V-7.4z"/>
				</g>
				<g id="g322" transform="translate(149.4235,748.5409)">
					<path id="path324" d="M-19.3-7.4c0,0.9-0.7,1.6-1.6,1.6c-0.9,0-1.6-0.7-1.6-1.6v-7.6c0-0.9,0.7-1.6,1.6-1.6
						c0.9,0,1.6,0.7,1.6,1.6V-7.4z"/>
				</g>
				<g id="g326" transform="translate(158.0192,744.2304)">
					<path id="path328" d="M-19.3-7.4c0,0.9-0.7,1.6-1.6,1.6c-0.9,0-1.6-0.7-1.6-1.6v-3.3c0-0.9,0.7-1.6,1.6-1.6
						c0.9,0,1.6,0.7,1.6,1.6V-7.4z"/>
				</g>
				<g id="g330" transform="translate(156.2126,719.9218)">
					<path id="path332" d="M-19.3-7.4v-0.2h-0.6V-9H-20v1.5h-0.6v0.2H-19.3z"/>
				</g>
				<g id="g334" transform="translate(156.3297,719.9218)">
					<path id="path336" d="M-19.3-7.4h0.4l0.5-1.4h0l0.5,1.4h0.4V-9h-0.2v1.3h0L-18.3-9h-0.2L-19-7.6h0V-9h-0.2V-7.4z"/>
				</g>
			</g>
		</g>
	</g>
</g>
</svg>
