<?xml version="1.0" encoding="utf-8"?>
<!-- Generator: Adobe Illustrator 19.0.1, SVG Export Plug-In . SVG Version: 6.00 Build 0)  -->
<svg version="1.1" id="Capa_1" xmlns="http://www.w3.org/2000/svg" xmlns:xlink="http://www.w3.org/1999/xlink" x="0px" y="0px"
	 viewBox="-703 405.7 191.3 191.3" style="enable-background:new -703 405.7 191.3 191.3;" xml:space="preserve">
<style type="text/css">
	.st0{fill:#0279C1;}
</style>
<g>
	<path class="st0" d="M-527.7,421.7h-159.4c-8.8,0-15.9,7.1-15.9,15.9v21.7v9.2v96.6c0,8.8,7.1,15.9,15.9,15.9h159.4
		c8.8,0,15.9-7.1,15.9-15.9v-96.7v-9.2v-21.6C-511.7,428.8-518.9,421.7-527.7,421.7z M-519.7,565.1c0,4.4-3.6,8-8,8h-159.4
		c-4.4,0-8-3.6-8-8v-92l79.6,46l8,4.6l8-4.6l79.8-46.1L-519.7,565.1L-519.7,565.1z M-519.7,463.9l-87.7,50.7l-87.6-50.6v-26.3
		c0-4.4,3.6-8,8-8h159.4c4.4,0,8,3.6,8,8L-519.7,463.9L-519.7,463.9z"/>
	<path class="st0" d="M-651.3,549.2h-23.9c-2.2,0-4,1.8-4,4c0,2.2,1.8,4,4,4h23.9c2.2,0,4-1.8,4-4
		C-647.3,551-649.1,549.2-651.3,549.2z"/>
</g>
</svg>
