<?xml version="1.0" encoding="utf-8"?>
<!-- Generator: Adobe Illustrator 19.0.1, SVG Export Plug-In . SVG Version: 6.00 Build 0)  -->
<svg version="1.1" id="Capa_1" xmlns="http://www.w3.org/2000/svg" xmlns:xlink="http://www.w3.org/1999/xlink" x="0px" y="0px"
	 viewBox="-703 405.7 191.3 191.3" style="enable-background:new -703 405.7 191.3 191.3;" xml:space="preserve">
<style type="text/css">
	.st0{fill:#0279C1;}
</style>
<path class="st0" d="M-536.8,457.2L-536.8,457.2l-50.3-50.3l0,0c-0.7-0.7-1.7-1.1-2.8-1.1h-73.2c-8.8,0-15.9,7.1-15.9,15.9v159.4
	c0,8.8,7.1,15.9,15.9,15.9h111.6c8.8,0,15.9-7.1,15.9-15.9V460C-535.6,458.9-536.1,458-536.8,457.2z M-583.5,421.8l31.7,31.7h-31.7
	V421.8z M-543.6,581.1c0,4.4-3.6,8-8,8h-111.6c-4.4,0-8-3.6-8-8V421.7c0-4.4,3.6-8,8-8h71.6h0.2v0.2v47.7h47.7l0.2,0.2L-543.6,581.1
	L-543.6,581.1z"/>
<path class="st0" d="M-563.5,557.2h-87.7c-2.2,0-4,1.8-4,4c0,2.2,1.8,4,4,4h87.7c2.2,0,4-1.8,4-4
	C-559.6,558.9-561.3,557.2-563.5,557.2z"/>
<path class="st0" d="M-563.5,533.2h-87.7c-2.2,0-4,1.8-4,4s1.8,4,4,4h87.7c2.2,0,4-1.8,4-4C-559.6,535-561.3,533.2-563.5,533.2z"/>
<path class="st0" d="M-563.5,509.3h-87.7c-2.2,0-4,1.8-4,4c0,2.2,1.8,4,4,4h87.7c2.2,0,4-1.8,4-4
	C-559.6,511.1-561.3,509.3-563.5,509.3z"/>
<path class="st0" d="M-563.5,485.4h-87.7c-2.2,0-4,1.8-4,4c0,2.2,1.8,4,4,4h87.7c2.2,0,4-1.8,4-4
	C-559.6,487.2-561.3,485.4-563.5,485.4z"/>
</svg>
