<?xml version="1.0" encoding="utf-8"?>
<!-- Generator: Adobe Illustrator 19.0.1, SVG Export Plug-In . SVG Version: 6.00 Build 0)  -->
<svg version="1.1" id="Capa_1" xmlns="http://www.w3.org/2000/svg" xmlns:xlink="http://www.w3.org/1999/xlink" x="0px" y="0px"
	 viewBox="-703 405.7 191.3 191.3" style="enable-background:new -703 405.7 191.3 191.3;" xml:space="preserve">
<style type="text/css">
	.st0{fill:#0279C1;}
</style>
<g>
	<path class="st0" d="M-543.6,405.7h-143.4c-8.8,0-15.9,7.1-15.9,15.9v159.4c0,8.8,7.1,15.9,15.9,15.9h143.4
		c8.8,0,15.9-7.1,15.9-15.9V421.7C-527.7,412.9-534.8,405.7-543.6,405.7z M-535.6,581.1c0,4.4-3.6,8-8,8h-143.4c-4.4,0-8-3.6-8-8
		V421.7c0-4.4,3.6-8,8-8h143.4c4.4,0,8,3.6,8,8L-535.6,581.1L-535.6,581.1z"/>
	<path class="st0" d="M-627.3,557.2h-47.8c-2.2,0-4,1.8-4,4c0,2.2,1.8,4,4,4h47.8c2.2,0,4-1.8,4-4
		C-623.3,558.9-625.1,557.2-627.3,557.2z"/>
	<path class="st0" d="M-627.3,533.2h-47.8c-2.2,0-4,1.8-4,4s1.8,4,4,4h47.8c2.2,0,4-1.8,4-4C-623.3,535-625.1,533.2-627.3,533.2z"/>
	<path class="st0" d="M-555.6,557.2h-47.8c-2.2,0-4,1.8-4,4c0,2.2,1.8,4,4,4h47.8c2.2,0,4-1.8,4-4
		C-551.6,558.9-553.4,557.2-555.6,557.2z"/>
	<path class="st0" d="M-555.6,533.2h-47.8c-2.2,0-4,1.8-4,4s1.8,4,4,4h47.8c2.2,0,4-1.8,4-4C-551.6,535-553.4,533.2-555.6,533.2z"/>
	<path class="st0" d="M-555.6,509.3h-47.8c-2.2,0-4,1.8-4,4c0,2.2,1.8,4,4,4h47.8c2.2,0,4-1.8,4-4
		C-551.6,511.1-553.4,509.3-555.6,509.3z"/>
	<path class="st0" d="M-600,457.5c0.3-1.3,0.6-2.6,0.6-4s-0.2-2.7-0.6-4c-1.8-6.9-8-12-15.4-12c-7.4,0-13.6,5.1-15.4,12
		c-0.3,1.3-0.6,2.6-0.6,4c0,1.4,0.2,2.7,0.6,4c1.8,6.9,8,12,15.4,12C-607.9,469.5-601.7,464.4-600,457.5z M-608.5,457.5
		c-1.4,2.4-3.9,4-6.9,4c-2.9,0-5.5-1.6-6.9-4c-0.7-1.2-1.1-2.5-1.1-4c0-1.5,0.4-2.8,1.1-4c1.4-2.4,3.9-4,6.9-4c2.9,0,5.5,1.6,6.9,4
		c0.7,1.2,1.1,2.5,1.1,4C-607.4,455-607.8,456.4-608.5,457.5z"/>
	<path class="st0" d="M-571.5,457.5c2.2,0,4-1.8,4-4c0-2.2-1.8-4-4-4H-592c0.3,1.3,0.6,2.6,0.6,4c0,1.4-0.2,2.7-0.6,4H-571.5z"/>
	<path class="st0" d="M-659.2,457.5h20.5c-0.3-1.3-0.6-2.6-0.6-4s0.2-2.7,0.6-4h-20.5c-2.2,0-4,1.8-4,4
		C-663.2,455.8-661.4,457.5-659.2,457.5z"/>
	<path class="st0" d="M-679.1,517.3h55.8v-31.9h-55.8V517.3z M-671.1,493.4h39.8v15.9h-39.8V493.4z"/>
	<path class="st0" d="M-555.6,485.4h-47.8c-2.2,0-4,1.8-4,4c0,2.2,1.8,4,4,4h47.8c2.2,0,4-1.8,4-4
		C-551.6,487.2-553.4,485.4-555.6,485.4z"/>
	<path class="st0" d="M-519.7,421.7v13.7v131.9v13.7c4.7-2.8,8-7.8,8-13.7V435.4C-511.7,429.5-515,424.4-519.7,421.7z"/>
</g>
</svg>
