<?xml version="1.0" encoding="utf-8"?>
<!-- Generator: Adobe Illustrator 19.0.1, SVG Export Plug-In . SVG Version: 6.00 Build 0)  -->
<svg version="1.1" id="Capa_1" xmlns="http://www.w3.org/2000/svg" xmlns:xlink="http://www.w3.org/1999/xlink" x="0px" y="0px"
	 viewBox="-703 405.7 191.3 191.3" style="enable-background:new -703 405.7 191.3 191.3;" xml:space="preserve">
<style type="text/css">
	.st0{fill:#0279C1;}
</style>
<g>
	<path class="st0" d="M-527.7,405.7h-159.4c-8.8,0-15.9,7.1-15.9,15.9v159.4c0,8.8,7.1,15.9,15.9,15.9h159.4
		c8.8,0,15.9-7.1,15.9-15.9V421.7C-511.7,412.9-518.9,405.7-527.7,405.7z M-519.7,581.1c0,4.4-3.6,8-8,8h-159.4c-4.4,0-8-3.6-8-8
		V421.7c0-4.4,3.6-8,8-8h159.4c4.4,0,8,3.6,8,8L-519.7,581.1L-519.7,581.1z"/>
	<path class="st0" d="M-547.6,497.4h-12.5c-1.8-6.9-8-12-15.4-12c-7.4,0-13.6,5.1-15.4,12h-76.3c-2.2,0-4,1.8-4,4s1.8,4,4,4h76.3
		c1.8,6.9,8,12,15.4,12c7.4,0,13.6-5.1,15.4-12h12.5c2.2,0,4-1.8,4-4C-543.6,499.2-545.4,497.4-547.6,497.4z M-568.6,505.4
		c-1.4,2.4-3.9,4-6.9,4c-2.9,0-5.5-1.6-6.9-4c-0.7-1.2-1.1-2.5-1.1-4c0-1.5,0.4-2.8,1.1-4c1.4-2.4,3.9-4,6.9-4c2.9,0,5.5,1.6,6.9,4
		c0.7,1.2,1.1,2.5,1.1,4S-567.9,504.2-568.6,505.4z"/>
	<path class="st0" d="M-547.6,449.6h-76.3c-1.8-6.9-8-12-15.4-12c-7.4,0-13.6,5.1-15.4,12h-12.5c-2.2,0-4,1.8-4,4c0,2.2,1.8,4,4,4
		h12.5c1.8,6.9,8,12,15.4,12c7.4,0,13.6-5.1,15.4-12h76.3c2.2,0,4-1.8,4-4C-543.6,451.4-545.4,449.6-547.6,449.6z M-632.4,457.5
		c-1.4,2.4-3.9,4-6.9,4c-2.9,0-5.5-1.6-6.9-4c-0.7-1.2-1.1-2.5-1.1-4c0-1.5,0.4-2.8,1.1-4c1.4-2.4,3.9-4,6.9-4c2.9,0,5.5,1.6,6.9,4
		c0.7,1.2,1.1,2.5,1.1,4C-631.3,455-631.7,456.4-632.4,457.5z"/>
	<path class="st0" d="M-547.6,545.2h-76.3c-1.8-6.9-8-12-15.4-12c-7.4,0-13.6,5.1-15.4,12h-12.5c-2.2,0-4,1.8-4,4c0,2.2,1.8,4,4,4
		h12.5c1.8,6.9,8,12,15.4,12c7.4,0,13.6-5.1,15.4-12h76.3c2.2,0,4-1.8,4-4C-543.6,547-545.4,545.2-547.6,545.2z M-632.4,553.2
		c-1.4,2.4-3.9,4-6.9,4c-2.9,0-5.5-1.6-6.9-4c-0.7-1.2-1.1-2.5-1.1-4c0-1.5,0.4-2.8,1.1-4c1.4-2.4,3.9-4,6.9-4c2.9,0,5.5,1.6,6.9,4
		c0.7,1.2,1.1,2.5,1.1,4S-631.7,552-632.4,553.2z"/>
</g>
</svg>
