<?xml version="1.0" encoding="utf-8"?>
<!-- Generator: Adobe Illustrator 19.0.1, SVG Export Plug-In . SVG Version: 6.00 Build 0)  -->
<svg version="1.1" id="Capa_1" xmlns="http://www.w3.org/2000/svg" xmlns:xlink="http://www.w3.org/1999/xlink" x="0px" y="0px"
	 viewBox="-703 405.7 191.3 191.3" style="enable-background:new -703 405.7 191.3 191.3;" xml:space="preserve">
<style type="text/css">
	.st0{fill:#0279C1;}
</style>
<g>
	<path class="st0" d="M-527.7,405.7h-159.4c-8.8,0-15.9,7.1-15.9,15.9v159.4c0,8.8,7.1,15.9,15.9,15.9h159.4
		c8.8,0,15.9-7.1,15.9-15.9V421.7C-511.7,412.9-518.9,405.7-527.7,405.7z M-519.7,581.1c0,4.4-3.6,8-8,8h-159.4c-4.4,0-8-3.6-8-8
		V421.7c0-4.4,3.6-8,8-8h159.4c4.4,0,8,3.6,8,8L-519.7,581.1L-519.7,581.1z"/>
	<path class="st0" d="M-590.5,504.5c9-5.6,15-15.6,15-27c0-17.6-14.3-31.9-31.9-31.9c-17.6,0-31.9,14.3-31.9,31.9
		c0,11.4,6,21.4,15,27c-18.1,6.8-31,24.2-31,44.7v8h95.6v-8C-559.6,528.7-572.4,511.3-590.5,504.5z M-631.3,477.5
		c0-13.2,10.7-23.9,23.9-23.9s23.9,10.7,23.9,23.9c0,13.2-10.7,23.9-23.9,23.9C-620.6,501.4-631.3,490.7-631.3,477.5z M-647.2,549.2
		c0-22,17.8-39.8,39.8-39.8s39.8,17.8,39.8,39.8H-647.2z"/>
</g>
</svg>
