<?xml version="1.0" encoding="utf-8"?>
<!-- Generator: Adobe Illustrator 19.0.1, SVG Export Plug-In . SVG Version: 6.00 Build 0)  -->
<svg version="1.1" id="Capa_1" xmlns="http://www.w3.org/2000/svg" xmlns:xlink="http://www.w3.org/1999/xlink" x="0px" y="0px"
	 viewBox="-703 405.7 191.3 191.3" style="enable-background:new -703 405.7 191.3 191.3;" xml:space="preserve">
<style type="text/css">
	.st0{fill:#0279C1;}
</style>
<g>
	<circle class="st0" cx="-531.7" cy="501.4" r="4"/>
	<circle class="st0" cx="-683.1" cy="501.4" r="4"/>
	<circle class="st0" cx="-607.4" cy="577.1" r="4"/>
	<path class="st0" d="M-527.7,405.7h-159.4c-8.8,0-15.9,7.1-15.9,15.9v159.4c0,8.8,7.1,15.9,15.9,15.9h159.4
		c8.8,0,15.9-7.1,15.9-15.9V421.7C-511.7,412.9-518.9,405.7-527.7,405.7z M-519.7,581.1c0,4.4-3.6,8-8,8h-159.4c-4.4,0-8-3.6-8-8
		V421.7c0-4.4,3.6-8,8-8h159.4c4.4,0,8,3.6,8,8L-519.7,581.1L-519.7,581.1z"/>
	<circle class="st0" cx="-607.4" cy="425.7" r="4"/>
	<path class="st0" d="M-562.3,541.4c-0.1-0.2-0.1-0.4-0.2-0.6l-30.9-53.4l-53.4-30.9c-0.2-0.1-0.4-0.1-0.6-0.2
		c-0.2-0.1-0.4-0.2-0.6-0.2c-0.3-0.1-0.6-0.1-0.9-0.1c-0.2,0-0.4,0-0.7,0c-0.3,0.1-0.6,0.2-0.8,0.3c-0.1,0.1-0.3,0.1-0.4,0.1
		c-0.1,0-0.1,0.1-0.2,0.1c-0.2,0.1-0.4,0.3-0.6,0.5c-0.2,0.2-0.4,0.4-0.5,0.6c0,0.1-0.1,0.1-0.1,0.2c-0.1,0.1-0.1,0.3-0.1,0.4
		c-0.1,0.3-0.2,0.5-0.3,0.8c0,0.2,0,0.4-0.1,0.7c0,0.3,0,0.6,0.1,0.9c0,0.2,0.1,0.4,0.2,0.6c0.1,0.2,0.1,0.4,0.2,0.6l30.9,53.4
		l53.4,30.9c0.2,0.1,0.4,0.1,0.6,0.2c0.2,0.1,0.4,0.2,0.6,0.2c0.3,0.1,0.6,0.1,0.9,0.1c0.2,0,0.4,0,0.7,0c0.3-0.1,0.6-0.2,0.8-0.3
		c0.1-0.1,0.3-0.1,0.4-0.1c0.1,0,0.1-0.1,0.2-0.1c0.2-0.2,0.4-0.3,0.6-0.5c0.2-0.2,0.4-0.4,0.5-0.6c0-0.1,0.1-0.1,0.1-0.2
		c0.1-0.1,0.1-0.3,0.1-0.4c0.1-0.3,0.2-0.5,0.3-0.8c0-0.2,0-0.4,0.1-0.7c0-0.3,0-0.6-0.1-0.9C-562.1,541.8-562.2,541.6-562.3,541.4z
		 M-615.6,509.6l-22.4-38.7l38.7,22.4l22.4,38.7L-615.6,509.6z"/>
</g>
</svg>
