<?xml version="1.0" encoding="utf-8"?>
<!-- Generator: Adobe Illustrator 19.0.1, SVG Export Plug-In . SVG Version: 6.00 Build 0)  -->
<svg version="1.1" id="Capa_1" xmlns="http://www.w3.org/2000/svg" xmlns:xlink="http://www.w3.org/1999/xlink" x="0px" y="0px"
	 viewBox="-703 405.7 191.3 191.3" style="enable-background:new -703 405.7 191.3 191.3;" xml:space="preserve">
<style type="text/css">
	.st0{fill:#0279C1;}
</style>
<g>
	<path class="st0" d="M-527.7,405.7h-159.4c-8.8,0-15.9,7.1-15.9,15.9v159.4c0,8.8,7.1,15.9,15.9,15.9h159.4
		c8.8,0,15.9-7.1,15.9-15.9V421.7C-511.7,412.9-518.9,405.7-527.7,405.7z M-519.7,581.1c0,4.4-3.6,8-8,8h-159.4c-4.4,0-8-3.6-8-8
		V421.7c0-4.4,3.6-8,8-8h159.4c4.4,0,8,3.6,8,8L-519.7,581.1L-519.7,581.1z"/>
	<path class="st0" d="M-591.2,542c-0.6-1.2-1.3-2.2-2.2-3.2c-0.1-0.1-0.2-0.2-0.3-0.3c-0.4-0.5-0.9-0.9-1.3-1.3
		c-0.1-0.1-0.2-0.1-0.3-0.2c-0.9-0.8-2-1.4-3-2c-0.1-0.1-0.2-0.1-0.3-0.2c-0.6-0.3-1.1-0.5-1.7-0.7c-0.1,0-0.3-0.1-0.4-0.1
		c-1.2-0.4-2.5-0.6-3.8-0.7c0,0,0,0-0.1,0l-19.1-89.6c-0.5-2.1-2.6-3.5-4.7-3.1c-2.1,0.5-3.5,2.6-3.1,4.7l19.1,89.6c0,0,0,0,0,0
		c-2.2,1.1-4.1,2.8-5.6,4.7c-0.1,0.1-0.2,0.2-0.3,0.4c-0.3,0.5-0.6,1-0.9,1.5c-0.2,0.3-0.4,0.7-0.5,1c-0.2,0.5-0.4,0.9-0.6,1.4
		c-0.2,0.5-0.3,0.9-0.4,1.4c-0.1,0.4-0.2,0.8-0.3,1.3c-0.1,0.6-0.1,1.2-0.2,1.8c0,0.3-0.1,0.7,0,1c0,1,0.1,2,0.3,3
		c1.8,8.6,10.3,14.1,18.9,12.3c1-0.2,1.9-0.5,2.9-0.9c0.3-0.1,0.6-0.3,0.9-0.5c0.6-0.3,1.1-0.6,1.6-0.9c0.4-0.2,0.7-0.5,1-0.8
		c0.4-0.3,0.8-0.6,1.1-1c0.4-0.3,0.7-0.7,1.1-1.1c0.2-0.3,0.5-0.6,0.7-0.9c0.4-0.5,0.7-1,1-1.5c0.1-0.1,0.1-0.2,0.2-0.4
		c1.2-2.1,1.9-4.6,2-7.1c0.1-1.3,0-2.7-0.3-4.1C-590.1,544.5-590.6,543.2-591.2,542z M-603.7,557c-4.3,0.9-8.5-1.8-9.5-6.1
		c-0.9-4.3,1.8-8.5,6.1-9.5c4.3-0.9,8.5,1.8,9.5,6.1C-596.7,551.8-599.4,556.1-603.7,557z"/>
	<path class="st0" d="M-664.3,452.5c-1.6,1.6-1.6,4.1,0,5.6l11.4,11.4c1.7-2,3.6-3.9,5.6-5.6l-11.4-11.4
		C-660.2,450.9-662.7,450.9-664.3,452.5z"/>
	<path class="st0" d="M-603.4,449.8v-16.1c0-2.2-1.8-4-4-4c-2.2,0-4,1.8-4,4v16.1c1.3-0.1,2.6-0.2,4-0.2
		C-606,449.6-604.7,449.7-603.4,449.8z"/>
	<path class="st0" d="M-550.5,452.5c-1.6-1.6-4.1-1.6-5.6,0l-11.4,11.4c2,1.7,3.9,3.6,5.6,5.6l11.4-11.4
		C-548.9,456.5-548.9,454-550.5,452.5z"/>
	<path class="st0" d="M-675.1,497.4c-2.2,0-4,1.8-4,4c0,2.2,1.8,4,4,4h20.1c-0.1-1.3-0.2-2.6-0.2-4c0-1.3,0.1-2.7,0.2-4H-675.1z"/>
	<path class="st0" d="M-539.6,497.4h-16.1c0.1,1.3,0.2,2.6,0.2,4c0,1.3-0.1,2.7-0.2,4h16.1c2.2,0,4-1.8,4-4
		C-535.6,499.2-537.4,497.4-539.6,497.4z"/>
</g>
</svg>
