<?xml version="1.0" encoding="utf-8"?>
<!-- Generator: Adobe Illustrator 19.0.1, SVG Export Plug-In . SVG Version: 6.00 Build 0)  -->
<svg version="1.1" xmlns="http://www.w3.org/2000/svg" xmlns:xlink="http://www.w3.org/1999/xlink" x="0px" y="0px"
	 viewBox="-703 405.7 191.3 191.3" style="enable-background:new -703 405.7 191.3 191.3;" xml:space="preserve">
<style type="text/css">
	.Graphic_x0020_Style{fill:none;}
	.st0{fill:#0279C1;}
</style>
<g id="Capa_1">
	<g>
		<path class="st0" d="M-655.4,469.5c-8.8,0-15.9,7.1-15.9,15.9c0,8.8,7.1,15.9,15.9,15.9s15.9-7.1,15.9-15.9
			S-646.5,469.5-655.4,469.5z M-655.4,493.4c-4.4,0-8-3.6-8-8c0-4.4,3.6-8,8-8s8,3.6,8,8C-647.4,489.8-650.9,493.4-655.4,493.4z"/>
		<path class="st0" d="M-559.7,469.5c-8.8,0-15.9,7.1-15.9,15.9c0,8.8,7.1,15.9,15.9,15.9s15.9-7.1,15.9-15.9
			S-550.9,469.5-559.7,469.5z M-559.7,493.4c-4.4,0-8-3.6-8-8c0-4.4,3.6-8,8-8s8,3.6,8,8C-551.8,489.8-555.3,493.4-559.7,493.4z"/>
		<path class="st0" d="M-607.5,469.5c-8.8,0-15.9,7.1-15.9,15.9c0,8.8,7.1,15.9,15.9,15.9s15.9-7.1,15.9-15.9
			S-598.7,469.5-607.5,469.5z M-607.5,493.4c-4.4,0-8-3.6-8-8c0-4.4,3.6-8,8-8s8,3.6,8,8C-599.6,489.8-603.1,493.4-607.5,493.4z"/>
		<path class="st0" d="M-527.7,421.7h-159.4c-8.8,0-15.9,7.1-15.9,15.9v95.6c0,8.8,7.1,15.9,15.9,15.9h58.4l21.2,31.9l21.3-31.9
			h58.5c8.8,0,15.9-7.1,15.9-15.9v-95.6C-511.7,428.8-518.9,421.7-527.7,421.7z M-519.7,533.2c0,4.4-3.6,8-8,8h-53.2h-10.6l-5.3,8
			l-10.6,15.9l-10.6-15.9l-5.3-8H-634h-53c-4.4,0-8-3.6-8-8v-95.6c0-4.4,3.6-8,8-8h159.4c4.4,0,8,3.6,8,8L-519.7,533.2L-519.7,533.2
			z"/>
	</g>
</g>
<g id="Layer_2">
</g>
</svg>
