<?xml version="1.0" encoding="utf-8"?>
<!-- Generator: Adobe Illustrator 19.0.1, SVG Export Plug-In . SVG Version: 6.00 Build 0)  -->
<svg version="1.1" id="Layer_1" xmlns="http://www.w3.org/2000/svg" xmlns:xlink="http://www.w3.org/1999/xlink" x="0px" y="0px"
	 viewBox="0 0 319.9 133" style="enable-background:new 0 0 319.9 133;" xml:space="preserve">
<style type="text/css">
	.st0{fill:#FFFFFF;}
</style>
<g>
	<path class="st0" d="M75.6,99.3c0,1.3-0.4,4.3-4.5,4.3c-2.8,0-4.6-1.4-4.6-4.3l0.4-40.9c0-5,0-6.8,0.5-10.4
		c0.2-1.1,0.4-2.2,0.5-3.2c-0.3,1.2-0.7,2.5-1.1,3.7c-1.7,5.6-2.2,6.7-5,14.1l-15.4,38.7c-0.4,1-1,2.3-4.3,2.3
		c-3.1,0-3.7-1.3-4.1-2.3l-15.8-40C18.7,52,18,50,16.5,44.2c0.6,5,0.6,5.9,0.8,13.3l0.6,41.8c0,1.3-0.4,4.3-4.4,4.3
		c-4.2,0-4.6-2.9-4.6-4.2V37.6c0-1.1,0.2-2.2,1.2-3.2c0.4-0.4,1.5-1.5,5.3-1.5c4.5,0,5.5,1.4,6.1,3.1l18.9,48.5
		c0.9,2.4,1.2,3.1,2,6.4c0.7-2.8,1.2-4.1,2.1-6.4l18.7-48.5c0.6-1.6,1.6-3.1,6.1-3.1c5.8,0,6.4,2.7,6.4,4.7V99.3z"/>
	<path class="st0" d="M128.3,96.9c-6,6.6-13.4,7.2-18.1,7.2c-5.1,0-12.2-0.7-17.8-6.9C86.2,90.5,86,81.4,86,77.8
		c0-4.7,0.5-13,6.1-19.4c6.1-6.8,14.3-7.4,18.5-7.4c14.5,0,24.1,9.3,24.1,26.1C134.8,81.5,134.3,90.2,128.3,96.9z M121.8,91.4
		c3.4-4.4,3.6-10.7,3.6-13.8c0-9.5-3.2-19.1-15.2-19.1c-2.7,0-7.9,0.4-11.6,5.6c-2.6,3.7-3.3,9-3.3,13.6c0,5,0.9,10.4,3.6,14
		c2,2.5,5.8,5,11.4,5C114.8,96.8,119.1,95,121.8,91.4z"/>
	<path class="st0" d="M155.9,77.7c2.8,8.3,2.9,9.4,3.7,14.7c0.7-4,1.2-6.9,4.8-17.5l6.6-20.4c0.4-1.2,1.2-3,4.1-3
		c3.9,0,4.9,2.8,4.9,4c0,0.6-0.1,1.2-0.3,1.8l-15.6,43.6c-0.5,1.3-1.3,2.8-4.7,2.8c-3.4,0-4.2-1.5-4.7-2.8l-15.4-43.3
		c-0.2-0.7-0.4-1.3-0.4-2c0-2.5,2.3-4.1,5.2-4.1c2.7,0,3.5,1.8,3.9,3.1L155.9,77.7z"/>
	<path class="st0" d="M260.9,99.3c-0.1,1.4-0.3,2.9-2.2,3.8c-1.3,0.6-3.2,0.6-4.5,0c-2.1-1.1-2.1-2.7-2.1-6.6
		c-4.2,5.6-8.5,7.5-15.7,7.5c-2.4,0-8.7-0.2-13.1-5c-4.2-4.7-4.2-11-4.2-15.7V56c0-1.3,0.4-4.5,4.5-4.5c4.1,0,4.6,3.2,4.6,4.4v24.5
		c0,6.6,0.3,9.4,1.6,11.7c2.3,4.1,6.9,4.1,8.1,4.1c6.4,0,11.8-3.8,13.3-10.4c0.6-2.5,0.5-4.6,0.5-8.3V56c0-1.3,0.4-4.5,4.5-4.5
		c4.2,0,4.6,3.2,4.6,4.5V99.3z"/>
	<path class="st0" d="M296.1,73.4c5.3,1.6,14.9,4.3,14.9,15.1c0,6.3-3.2,10.1-6.2,12.1c-3.7,2.6-9,3.4-13.5,3.4
		c-2.9,0-9.8-0.3-14.9-4.5c-4.5-3.8-5.4-9.3-5.4-10.6c0-3.3,3.3-4.1,4.8-4.1c2.3,0,2.9,1.2,3.3,2.2c1.4,3.7,1.5,4.1,2.2,5.2
		c2.3,3.4,6.4,4.8,10.5,4.8c5.8,0,10.1-3.1,10.1-7.7c0-5.1-4.5-6.4-9.5-7.9l-5.7-1.7c-5.4-1.8-13.8-4.5-13.8-14
		c0-2.6,1-14.7,17.9-14.7c16.6,0,19.3,11.3,19.3,13.3c0,3-2.7,3.8-4.1,3.8c-2.2,0-2.8-1.1-4.2-3.9c-0.9-1.7-3.5-6.3-11.3-6.3
		c-1.2,0-3.8,0.1-5.7,1.4c-1.7,1.1-2.9,3.1-2.9,5.2c0,4.5,3.9,5.7,8.5,7.1L296.1,73.4z"/>
</g>
<path class="st0" d="M124.8,39.1c0,1.8-1.5,3.3-3.3,3.3H99.7c-1.8,0-3.3-1.5-3.3-3.3l0,0c0-1.8,1.5-3.3,3.3-3.3h21.8
	C123.3,35.8,124.8,37.3,124.8,39.1L124.8,39.1z"/>
<g>
	<path class="st0" d="M199.5,104.5l9.9-37.9l0.9-4.3c0.8-4.3-1.1-8.8-5.1-11.1c-5.1-3-11.7-1.4-14.7,3.7c-1.8,2.9-1.7,6.1-0.8,9.3
		L199.5,104.5z"/>
	<path class="st0" d="M190.3,37.7c0-5.1,4.1-9.2,9.2-9.2c5.1,0,9.2,4.1,9.2,9.2c0,5.1-4.1,9.2-9.2,9.2
		C194.4,47,190.3,42.8,190.3,37.7"/>
</g>
</svg>
