<?xml version="1.0" standalone="no"?>
<!DOCTYPE svg PUBLIC "-//W3C//DTD SVG 1.1//EN" "http://www.w3.org/Graphics/SVG/1.1/DTD/svg11.dtd" >
<svg>
<metadata>
Created by FontForge 20090622 at Wed Aug 12 22:15:13 2015
 By deploy user
URW Software, Copyright 1994 by URW
</metadata>
<defs>
<font id="NeuzeitGroT-Blac" horiz-adv-x="1024" >
  <font-face 
    font-family="NeuzeitGroTBla"
    font-weight="400"
    font-stretch="normal"
    units-per-em="2048"
    panose-1="0 0 0 0 0 0 0 0 0 0"
    ascent="1567"
    descent="-481"
    x-height="949"
    cap-height="1365"
    bbox="-355 -512 2116 1842"
    underline-thickness="200"
    underline-position="-109"
    unicode-range="U+0020-U+F002"
  />
<missing-glyph horiz-adv-x="614" 
d="M61 0v1365h492v-1365h-492zM492 61v1243h-370v-1243h370z" />
    <glyph glyph-name=".notdef" horiz-adv-x="614" 
d="M61 0v1365h492v-1365h-492zM492 61v1243h-370v-1243h370z" />
    <glyph glyph-name="glyph1" horiz-adv-x="0" 
 />
    <glyph glyph-name="glyph2" horiz-adv-x="614" 
 />
    <glyph glyph-name="space" unicode=" " horiz-adv-x="614" 
 />
    <glyph glyph-name="exclam" unicode="!" horiz-adv-x="618" 
d="M461 1365v-893h-303v893h303zM313 314q75 0 123 -52q46 -50 46 -120q0 -83 -59 -134q-45 -39 -113 -39q-79 0 -127 52q-46 50 -46 122q0 80 59 132q45 39 117 39z" />
    <glyph glyph-name="quotedbl" unicode="&#x22;" horiz-adv-x="922" 
d="M354 818h-241l-63 547h368zM808 818h-241l-62 547h367z" />
    <glyph glyph-name="numbersign" unicode="#" 
d="M923 606v-155h-190l-59 -396h-158l58 396h-179l-58 -396h-155l58 396h-187v155h211l28 178h-186v155h207l56 372h151l-53 -372h180l54 372h157l-55 -372h169v-155h-191l-25 -178h167zM625 784h-181l-25 -178h178z" />
    <glyph glyph-name="dollar" unicode="$" 
d="M557 1113v-301q144 -47 234 -101q172 -102 172 -300q0 -165 -114 -286q-81 -86 -221 -114q-24 -5 -71 -11v-175h-103v175q-157 7 -278 121q-100 102 -110 269h279q-4 -108 109 -137v296q-126 42 -212 95q-87 54 -128 117q-52 80 -52 204q0 101 44.5 188.5t125.5 143.5
q94 65 222 69v145h103v-145q216 -35 301 -139q80 -95 85 -227h-273q-2 48 -29 75q-33 30 -84 38zM454 1113q-48 -7 -73 -29q-44 -41 -44 -101q0 -65 45 -100q17 -13 72 -37v267zM557 253q50 9 78 37q39 38 39 99t-43 91q-24 17 -74 31v-258z" />
    <glyph glyph-name="percent" unicode="%" horiz-adv-x="1457" 
d="M618 1118v-215q0 -138 -75 -204q-71 -64 -193 -64q-136 0 -209 68q-41 39 -53 95q-13 61 -13 145v161q0 148 61 212q72 76 206 76q119 0 195 -65q81 -69 81 -209zM265 1104v-184q0 -63 10 -83q18 -35 74 -35q52 0 69 36q13 25 13 91v175q0 67 -16 91q-19 27 -67 27
q-54 0 -70 -32q-13 -25 -13 -86zM1382 456v-215q0 -138 -75 -204q-71 -64 -193 -64q-135 0 -208 68q-41 39 -53 95q-13 62 -13 146v160q0 149 61 212q72 77 205 77q119 0 195 -65q81 -70 81 -210zM1030 442v-184q0 -63 10 -83q17 -35 73 -35q52 0 69 36q13 26 13 91v175
q0 68 -16 92q-18 27 -67 27q-53 0 -69 -32q-13 -25 -13 -87zM1215 1338l-884 -1365l-88 56l882 1363z" />
    <glyph glyph-name="ampersand" unicode="&#x26;" horiz-adv-x="1346" 
d="M1085 292l234 -292h-361l-90 106q-211 -146 -387 -146q-174 0 -289 103q-124 110 -124 292q0 137 68 230q64 88 215 188q-54 78 -74 125q-35 78 -35 156q0 152 121 237q103 73 250 73q176 0 276 -98q90 -88 90 -209q0 -112 -77 -214q-46 -62 -149 -130l157 -205
q92 79 117 107q22 21 87 98l205 -182q-119 -133 -234 -239zM595 918q103 64 103 132q0 38 -27 65q-20 19 -50 19q-42 0 -69 -32q-20 -23 -20 -52q0 -30 17 -67q7 -14 25.5 -40t20.5 -25zM505 553q-131 -79 -131 -171q0 -52 38 -95q41 -48 107 -48q46 0 90.5 22.5t78.5 62.5z
" />
    <glyph glyph-name="quotesingle" unicode="'" horiz-adv-x="478" 
d="M365 818h-252l-63 547h379z" />
    <glyph glyph-name="parenleft" unicode="(" horiz-adv-x="695" 
d="M612 -289l-212 -175q-332 449 -332 948q0 308 130 613q71 167 154 270q20 25 64 73l196 -181q-96 -130 -153 -262q-114 -265 -114 -532q0 -402 267 -754z" />
    <glyph glyph-name="parenright" unicode=")" horiz-adv-x="695" 
d="M82 1265l213 175q331 -449 331 -948q0 -308 -130 -613q-71 -167 -153 -270l-64 -73l-197 181q96 130 153 263q114 264 114 531q0 402 -267 754z" />
    <glyph glyph-name="asterisk" unicode="*" horiz-adv-x="840" 
d="M415 924l-101 -149l-146 100l106 149l-165 55l59 156l163 -48v178h167v-178l173 67l59 -155l-190 -75l131 -149l-131 -100z" />
    <glyph glyph-name="plus" unicode="+" 
d="M16 819h413v411h164v-411h416v-158h-416v-411h-164v411h-413v158z" />
    <glyph glyph-name="comma" unicode="," horiz-adv-x="563" 
d="M464 248l-170 -491l-208 44l92 513z" />
    <glyph glyph-name="hyphen" unicode="-" horiz-adv-x="468" 
d="M468 637v-272h-468v272h468z" />
    <glyph glyph-name="period" unicode="." horiz-adv-x="563" 
d="M285 314q75 0 123 -52q46 -50 46 -120q0 -83 -59 -134q-45 -39 -113 -39q-79 0 -127 52q-46 50 -46 122q0 80 59 132q45 39 117 39z" />
    <glyph glyph-name="slash" unicode="/" horiz-adv-x="802" 
d="M762 1365l-675 -1782h-204l675 1782h204z" />
    <glyph glyph-name="zero" unicode="0" 
d="M950 939v-523q0 -120 -29 -200.5t-92 -139.5q-115 -105 -311 -105q-221 0 -337 113q-67 65 -86 156q-21 104 -21 244v431q0 180 43 272q52 110 175 165q96 42 213 42q192 0 315 -108q80 -71 107 -164q23 -78 23 -183zM386 915v-471q0 -100 18 -131q14 -25 45 -41t65 -16
q76 0 108 59q22 40 22 145v455q0 79 -9 108q-27 80 -121 80q-77 0 -106 -52q-22 -39 -22 -136z" />
    <glyph glyph-name="one" unicode="1" 
d="M456 968l-221 -99v284l533 250v-1403h-312v968z" />
    <glyph glyph-name="two" unicode="2" 
d="M560 270h341v-270h-860l477 750q59 92 81 139q24 51 24 97q0 52 -31 86q-37 40 -100 40q-100 0 -132 -88q-15 -42 -17 -127h-283v31q0 132 55 239q58 116 167 173q101 54 229 54q100 0 188.5 -36t147.5 -100q89 -98 89 -239q0 -110 -40 -201q-47 -106 -134 -240z" />
    <glyph glyph-name="three" unicode="3" 
d="M458 1104h-353v261h858l-366 -509q129 -18 212 -92q133 -118 133 -323q0 -211 -138 -347q-126 -123 -319 -123q-174 0 -294 102q-106 89 -133 235q-6 33 -10 93h278q7 -60 34 -95q44 -57 118 -57q78 0 131 59q38 44 38 112q0 73 -39 121q-48 58 -128 58q-61 0 -107 -31
l-186 156z" />
    <glyph glyph-name="four" unicode="4" 
d="M549 266h-481v262l417 837h362v-837h108v-262h-108v-266h-298v266zM549 528v467l-239 -467h239z" />
    <glyph glyph-name="five" unicode="5" 
d="M410 1088v-261q83 35 157 35q78 0 152 -33t127 -92q107 -117 107 -298q0 -114 -44 -213.5t-122 -161.5q-117 -93 -280 -93q-200 0 -326 133q-61 64 -110 194l265 100q44 -134 158 -134q68 0 111 47q45 49 45 119q0 66 -41 115q-47 56 -116 56q-85 0 -137 -78h-226v842
h749v-277h-469z" />
    <glyph glyph-name="six" unicode="6" 
d="M901 1365l-349 -535q28 5 43 5q146 0 254 -112q112 -117 112 -289q0 -99 -41 -191t-116 -158q-127 -114 -303 -114q-210 0 -336 152q-101 120 -101 287q0 106 45 226q36 94 126 235l317 494h349zM514 579q-71 0 -120 -55q-40 -45 -40 -109q0 -67 45 -111q43 -42 110 -42
q81 0 127 59q35 45 35 101q0 65 -42 110q-44 47 -115 47z" />
    <glyph glyph-name="seven" unicode="7" 
d="M532 1087h-401v278h830l-535 -1365h-319z" />
    <glyph glyph-name="eight" unicode="8" 
d="M797 703q167 -95 167 -306q0 -195 -140 -317q-125 -109 -317 -109q-104 0 -195.5 36.5t-152.5 103.5q-98 107 -98 270q0 143 68 236q36 48 107 86q-68 41 -103.5 111t-35.5 163q0 203 137 318q116 99 288 99q196 0 313 -126q104 -113 104 -278q0 -104 -50 -192
q-33 -59 -92 -95zM516 1129q-67 0 -109 -53q-33 -43 -33 -96q0 -63 42 -109q40 -44 101 -44q70 0 116 55q36 43 36 96q0 61 -49 110q-40 41 -104 41zM508 559q-65 0 -111 -49q-40 -43 -40 -107q0 -70 47 -113q43 -39 109 -39q74 0 117 53q37 45 37 101q0 66 -50 113
q-44 41 -109 41z" />
    <glyph glyph-name="nine" unicode="9" 
d="M481 531h-19q-89 0 -173 37q-125 55 -186 182q-40 85 -40 188q0 199 136 329q133 127 322 127q219 0 348 -163q94 -119 94 -284q0 -196 -172 -464l-310 -483h-345zM514 1107q-63 0 -111 -48q-44 -45 -44 -109q0 -69 49 -116q41 -40 105 -40q79 0 126 59q33 42 33 96
q0 65 -47 112q-44 46 -111 46z" />
    <glyph glyph-name="colon" unicode=":" horiz-adv-x="563" 
d="M285 314q75 0 123 -52q46 -50 46 -120q0 -83 -59 -134q-45 -39 -113 -39q-79 0 -127 52q-46 50 -46 122q0 80 59 132q45 39 117 39zM285 1028q75 0 123 -52q46 -50 46 -120q0 -83 -59 -134q-46 -39 -113 -39q-79 0 -127 52q-46 50 -46 122q0 80 59 132q45 39 117 39z" />
    <glyph glyph-name="semicolon" unicode=";" horiz-adv-x="563" 
d="M464 248l-170 -491l-208 44l92 513zM318 987q75 0 123 -52q46 -50 46 -120q0 -82 -59 -134q-45 -39 -113 -39q-79 0 -127 52q-46 50 -46 122q0 80 59 132q45 39 117 39z" />
    <glyph glyph-name="less" unicode="&#x3c;" 
d="M955 1309v-337l-529 -281l529 -283v-334l-887 476v283z" />
    <glyph glyph-name="equal" unicode="=" 
d="M15 973h993v-153h-993v153zM15 662h993v-153h-993v153z" />
    <glyph glyph-name="greater" unicode="&#x3e;" 
d="M69 74v337l529 281l-528 283v334l886 -476v-284z" />
    <glyph glyph-name="question" unicode="?" horiz-adv-x="936" 
d="M585 496h-314q-2 52 -2 78q0 105 36 162q24 38 65 75l92 73q55 43 74 73q18 27 18 59q0 43 -30 71q-29 26 -78 26q-111 0 -115 -127h-287q3 118 41 198q48 99 137 150q101 58 233 58q102 0 192.5 -38.5t145.5 -105.5q76 -93 76 -229q0 -123 -64 -209q-39 -51 -108 -102
q-81 -59 -99 -90q-13 -24 -13 -60v-29v-33zM432 314q75 0 123 -52q46 -50 46 -120q0 -82 -59 -134q-45 -39 -114 -39q-78 0 -126 52q-46 50 -46 122q0 80 59 132q45 39 117 39z" />
    <glyph glyph-name="at" unicode="@" horiz-adv-x="1573" 
d="M1331 385h106q-45 -93 -82 -143.5t-95 -100.5q-190 -162 -453 -162q-275 0 -476 191q-222 210 -222 510q0 301 228 513q209 195 492 195q251 0 433 -159q201 -176 201 -420q0 -202 -136 -359q-67 -77 -159 -125q-99 -52 -195 -52q-65 0 -107 34q-30 25 -34 78
q-59 -48 -93 -67q-70 -41 -141 -41q-97 0 -156 63q-64 69 -64 185q0 191 120 368q64 96 150.5 147.5t181.5 51.5q68 0 118 -29q23 -14 59 -50l18 43h183l-221 -575q-22 -57 -22 -81q0 -37 53 -37q52 0 115 41q104 68 163 186q48 98 48 205q0 199 -158 341q-150 135 -358 135
q-243 0 -419 -175q-177 -176 -177 -425q0 -246 187 -419q167 -156 386 -156q215 0 382 131q70 54 144 158zM843 600l100 244q10 25 10 56q0 96 -79 96q-53 0 -109 -57q-88 -90 -153 -238q-64 -146 -64 -248q0 -82 78 -82q28 0 53 13q96 53 164 216z" />
    <glyph glyph-name="A" unicode="A" horiz-adv-x="1321" 
d="M898 198h-484l-60 -198h-354l451 1365h421l449 -1365h-364zM815 466l-160 508l-159 -508h319z" />
    <glyph glyph-name="B" unicode="B" horiz-adv-x="1192" 
d="M862 678q108 -25 163 -77q92 -87 92 -239q0 -95 -37 -174t-102 -124q-51 -34 -117.5 -49t-170.5 -15h-560v1365h467q140 0 226.5 -18.5t141.5 -60.5q132 -100 132 -292q0 -143 -92 -237q-50 -51 -143 -79zM462 1117v-316h82q123 0 173 45q43 40 43 113q0 99 -70 133
q-52 25 -151 25h-77zM462 559v-321h120q103 0 147 33q52 39 52 124q0 101 -73 139q-34 18 -72 22q-39 3 -97 3h-77z" />
    <glyph glyph-name="C" unicode="C" horiz-adv-x="1304" 
d="M1070 398l196 -231q-108 -91 -200 -131q-142 -63 -310 -63q-314 0 -501 207q-89 97 -137 228t-48 272q0 165 64 312.5t178 246.5q178 153 453 153q177 0 322 -68q90 -42 195 -140l-212 -221q-141 122 -293 122q-172 0 -275 -117q-96 -110 -96 -279q0 -96 35 -179.5
t98 -138.5q106 -91 258 -91q84 0 158 31q60 26 115 87z" />
    <glyph glyph-name="D" unicode="D" horiz-adv-x="1327" 
d="M130 0v1365h399q247 0 386 -69q172 -87 264 -260q79 -150 79 -340q0 -230 -111 -410q-177 -286 -580 -286h-437zM462 1099v-827h51q163 0 269 91q66 57 103 141.5t37 180.5q0 128 -64 238q-57 97 -165 142q-82 34 -167 34h-64z" />
    <glyph glyph-name="E" unicode="E" horiz-adv-x="939" 
d="M400 1097v-279h450v-268h-450v-282h450v-268h-782v1365h782v-268h-450z" />
    <glyph glyph-name="F" unicode="F" horiz-adv-x="967" 
d="M462 1097v-279h454v-268h-454v-550h-332v1365h786v-268h-454z" />
    <glyph glyph-name="G" unicode="G" horiz-adv-x="1560" 
d="M812 779h699q1 -45 1 -75q0 -330 -226 -538q-211 -193 -501 -193q-149 0 -284.5 56t-236.5 159q-194 198 -194 494q0 308 212 514q203 196 499 196q220 0 406 -117q94 -59 169 -152l-251 -196q-127 158 -312 158q-210 0 -316 -168q-71 -112 -71 -238q0 -191 141 -311
q111 -94 259 -94q151 0 259 107q54 52 82 130h-335v268z" />
    <glyph glyph-name="H" unicode="H" horiz-adv-x="1372" 
d="M462 539v-539h-332v1365h332v-558h449v558h332v-1365h-332v539h-449z" />
    <glyph glyph-name="I" unicode="I" horiz-adv-x="592" 
d="M462 1365v-1365h-332v1365h332z" />
    <glyph glyph-name="J" unicode="J" horiz-adv-x="797" 
d="M687 1365v-851q0 -136 -17.5 -215.5t-60.5 -137.5q-115 -150 -331 -177q-85 -10 -210 -11v296q31 -3 47 -3q110 0 170 45q46 35 60 103q10 46 10 156v527h-287v268h619z" />
    <glyph glyph-name="K" unicode="K" horiz-adv-x="1176" 
d="M462 597v-597h-332v1365h332v-576l319 576h382l-382 -649l382 -716h-382z" />
    <glyph glyph-name="L" unicode="L" horiz-adv-x="947" 
d="M462 268h444v-268h-776v1365h332v-1097z" />
    <glyph glyph-name="M" unicode="M" horiz-adv-x="1757" 
d="M462 779v-779h-332v1365h388l361 -735l360 735h389v-1365h-332v779l-417 -834z" />
    <glyph glyph-name="N" unicode="N" horiz-adv-x="1421" 
d="M462 777v-777h-332v1365h332l498 -767v767h332v-1365h-332z" />
    <glyph glyph-name="O" unicode="O" horiz-adv-x="1585" 
d="M814 1393q150 0 284 -58.5t235 -168.5q182 -197 182 -473q0 -158 -64 -301t-180 -246q-197 -173 -471 -173q-159 0 -303.5 63t-248.5 178q-178 196 -178 468q0 146 59.5 280.5t169.5 239.5q202 191 515 191zM788 1085q-168 0 -283 -131q-97 -111 -97 -273
q0 -176 117 -290q114 -112 269 -112q169 0 284 128q101 111 101 278q0 182 -126 299q-109 101 -265 101z" />
    <glyph glyph-name="P" unicode="P" horiz-adv-x="1149" 
d="M462 444v-444h-332v1365h470q246 0 381 -122q127 -115 127 -326q0 -112 -41 -208t-115 -158q-127 -107 -333 -107h-157zM462 716h92q72 0 119 23q98 49 98 164q0 105 -77 157q-49 32 -118 32h-114v-376z" />
    <glyph glyph-name="Q" unicode="Q" horiz-adv-x="1583" 
d="M1471 100l-237 -195l-113 140q-158 -72 -328 -72q-160 0 -308.5 68.5t-252.5 190.5q-163 191 -163 444q0 156 67.5 301.5t187.5 247.5q196 167 476 167q339 0 544 -239q170 -198 170 -457q0 -189 -88 -359q-27 -52 -73 -107zM1034 598l98 -114q46 103 46 209
q0 169 -120 285q-110 106 -264 106q-180 0 -295 -137q-92 -110 -92 -265q0 -168 110 -283q112 -117 278 -117q58 0 92 11l-89 108z" />
    <glyph glyph-name="R" unicode="R" horiz-adv-x="1220" 
d="M462 528v-528h-332v1365h443q293 0 423 -121q126 -118 126 -324q0 -315 -266 -417l302 -503h-397zM462 715h106q92 0 146 39q71 51 71 148q0 81 -49 133q-52 57 -146 57h-128v-377z" />
    <glyph glyph-name="S" unicode="S" horiz-adv-x="1098" 
d="M55 414h325q-1 -14 -1 -24q0 -41 30 -72q52 -52 132 -52q66 0 108 38q33 30 33 71q0 52 -55 87q-35 24 -142 61q-196 71 -298 159q-119 102 -119 283q0 200 136 315q133 112 337 112q198 0 328 -107q131 -108 160 -323h-338q-15 137 -152 137q-73 0 -108 -38
q-28 -30 -28 -70q0 -61 63 -99q31 -19 156 -67q210 -78 293 -154q115 -105 115 -274q0 -224 -174 -338q-132 -86 -316 -86q-145 0 -256.5 54.5t-171.5 156.5q-57 94 -57 230z" />
    <glyph glyph-name="T" unicode="T" horiz-adv-x="961" 
d="M647 1097v-1097h-332v1097h-315v268h961v-268h-314z" />
    <glyph glyph-name="U" unicode="U" horiz-adv-x="1310" 
d="M441 1365v-795q0 -146 46 -211q56 -79 169 -79q57 0 106.5 25t72.5 66q34 62 34 199v795h332v-781q0 -300 -142 -453q-69 -76 -173.5 -117t-226.5 -41q-128 0 -238.5 44.5t-183.5 125.5q-78 86 -104 199q-24 110 -24 242v781h332z" />
    <glyph glyph-name="V" unicode="V" horiz-adv-x="1163" 
d="M574 531l246 834h343l-411 -1365h-360l-392 1365h341z" />
    <glyph glyph-name="W" unicode="W" horiz-adv-x="1751" 
d="M1220 571l184 794h347l-364 -1365h-344l-175 808l-173 -808h-342l-353 1365h353l175 -775l182 775h333z" />
    <glyph glyph-name="X" unicode="X" horiz-adv-x="1218" 
d="M612 440l-225 -440h-380l418 733l-355 632h379l163 -328l174 328h375l-361 -632l412 -733h-377z" />
    <glyph glyph-name="Y" unicode="Y" horiz-adv-x="1169" 
d="M754 602v-602h-332v602l-449 763h395l223 -419l217 419h388z" />
    <glyph glyph-name="Z" unicode="Z" horiz-adv-x="1140" 
d="M542 268h518v-268h-1033l572 1097h-507v268h1020z" />
    <glyph glyph-name="bracketleft" unicode="[" horiz-adv-x="695" 
d="M123 1365h492v-177h-233v-1428h233v-177h-492v1782z" />
    <glyph glyph-name="backslash" unicode="\" horiz-adv-x="802" 
d="M41 1365h203l676 -1782h-204z" />
    <glyph glyph-name="bracketright" unicode="]" horiz-adv-x="695" 
d="M571 1365v-1782h-491v177h232v1428h-232v177h491z" />
    <glyph glyph-name="asciicircum" unicode="^" 
d="M322 707h-298l301 667h375l301 -667h-298l-190 438z" />
    <glyph glyph-name="underscore" unicode="_" 
d="M0 -109h1024v-200h-1024v200z" />
    <glyph glyph-name="grave" unicode="`" 
d="M482 1387l170 -291h-184l-286 291h300z" />
    <glyph glyph-name="a" unicode="a" horiz-adv-x="1274" 
d="M847 846v103h311v-949h-311v106q-125 -144 -322 -144q-225 0 -358 168q-107 135 -107 329q0 116 41.5 221t116.5 177q135 129 333 129q106 0 190 -49q50 -30 106 -91zM615 728q-107 0 -169 -87q-54 -76 -54 -174q0 -120 74 -196q64 -64 152 -64q105 0 173 86
q61 78 61 183q0 89 -48 159q-63 93 -189 93z" />
    <glyph glyph-name="b" unicode="b" horiz-adv-x="1272" 
d="M427 103v-103h-311v1365h311v-509q57 60 107 87q83 44 189 44q211 0 356 -150q133 -136 133 -369q0 -249 -151 -386q-131 -120 -329 -120q-106 0 -187 39q-60 29 -118 102zM651 728q-105 0 -175 -99q-53 -75 -53 -171q0 -111 70 -184q64 -66 158 -66q103 0 170 78
q60 69 60 184q0 100 -55 171q-68 87 -175 87z" />
    <glyph glyph-name="c" unicode="c" horiz-adv-x="970" 
d="M767 304l186 -199q-162 -143 -372 -143q-105 0 -204.5 39.5t-174.5 110.5q-143 136 -143 357q0 262 190 411q137 107 329 107q207 0 396 -164l-207 -188q-77 77 -175 77q-101 0 -164 -76q-56 -67 -56 -158q0 -64 31 -121.5t83 -88.5q54 -32 122 -32q74 0 159 68z" />
    <glyph glyph-name="d" unicode="d" horiz-adv-x="1276" 
d="M849 862v503h311v-1365h-311v106q-55 -76 -111 -103q-83 -41 -195 -41q-232 0 -367 154q-116 134 -116 348q0 247 156 390q147 133 331 133q88 0 168 -31q65 -26 134 -94zM618 729q-116 0 -183 -106q-43 -70 -43 -160q0 -115 70 -186q69 -70 163 -70q110 0 173 92
q51 72 51 170q0 105 -62 182q-63 78 -169 78z" />
    <glyph glyph-name="e" unicode="e" horiz-adv-x="1154" 
d="M1100 408h-718q13 -66 52 -105q65 -66 164 -66q70 0 127 37q38 24 60 68l287 -73q-62 -123 -153 -194q-144 -113 -326 -113q-114 0 -218.5 42t-178.5 117q-136 139 -136 358q0 114 42 215t118 170q136 123 356 123q123 0 228.5 -45.5t176.5 -129.5q120 -143 120 -361
q0 -14 -1 -43zM783 573q-13 64 -52 101q-61 55 -154 55q-88 0 -145 -54q-40 -38 -53 -102h404z" />
    <glyph glyph-name="f" unicode="f" horiz-adv-x="611" 
d="M448 691v-691h-311v691h-94v258h94v16q-1 283 194 366q94 36 227 34v-288q-110 -11 -110 -112v-16h110v-258h-110z" />
    <glyph glyph-name="g" unicode="g" horiz-adv-x="1225" 
d="M804 853v96h304v-845q0 -215 -56 -321q-65 -124 -203 -190q-126 -59 -282 -59q-282 0 -490 196l188 192q118 -130 286 -130q122 0 186 70q67 72 67 195v47q-127 -142 -327 -142q-98 0 -190 43t-156 119q-109 130 -109 341q0 119 40 223.5t112 173.5q130 125 337 125
q182 0 293 -134zM573 712q-112 0 -176 -90q-43 -60 -43 -143q0 -113 72 -183q61 -60 158 -60q109 0 174 74q41 47 41 142q0 138 -69 202q-63 58 -157 58z" />
    <glyph glyph-name="h" unicode="h" horiz-adv-x="1105" 
d="M427 1365v-503q108 125 245 125q62 0 124.5 -24t107.5 -65q57 -51 74 -119q16 -65 16 -159v-620h-311v569q0 93 -53 136q-30 24 -71 24q-48 0 -84 -30q-48 -39 -48 -130v-569h-311v1365h311z" />
    <glyph glyph-name="i" unicode="i" horiz-adv-x="543" 
d="M427 949v-949h-311v949h311zM274 1388q73 0 119 -50q44 -48 44 -115q0 -79 -57 -128q-43 -38 -109 -38q-75 0 -121 50q-44 48 -44 117q0 77 57 126q43 38 111 38z" />
    <glyph glyph-name="j" unicode="j" horiz-adv-x="543" 
d="M427 949v-949q0 -223 -95 -322q-101 -103 -290 -103q-32 0 -92 4v282q29 -2 47 -2q119 0 119 141v949h311zM275 1388q72 0 118 -50q44 -48 44 -115q0 -79 -57 -128q-43 -38 -108 -38q-76 0 -122 50q-44 48 -44 117q0 77 57 126q43 38 112 38z" />
    <glyph glyph-name="k" unicode="k" horiz-adv-x="999" 
d="M427 380v-380h-311v1365h311v-755l210 339h353l-277 -451l277 -498h-353z" />
    <glyph glyph-name="l" unicode="l" horiz-adv-x="543" 
d="M427 0h-311v1365h311v-1365z" />
    <glyph glyph-name="m" unicode="m" horiz-adv-x="1642" 
d="M116 949h311v-114q36 69 82 101q73 51 174 51q93 0 168 -46q61 -37 92 -106q44 73 100 106q79 46 179 46q140 0 225 -84q57 -57 72 -131q12 -62 12 -146v-626h-311v572q0 61 -22 101q-31 55 -99 55q-61 0 -93 -47q-28 -41 -28 -109v-572h-311v562q0 75 -28 116
q-34 51 -96 51q-59 0 -91 -46q-25 -37 -25 -121v-562h-311v949z" />
    <glyph glyph-name="n" unicode="n" horiz-adv-x="1110" 
d="M116 949h311v-108q43 75 86 103q64 43 157 43q150 0 242 -92q57 -57 72 -132t15 -181v-582h-311v579q0 56 -18 87q-35 63 -111 63q-73 0 -110 -61q-22 -35 -22 -93v-575h-311v949z" />
    <glyph glyph-name="o" unicode="o" horiz-adv-x="1185" 
d="M599 987q242 0 394 -169q132 -146 132 -347q0 -230 -171 -378q-150 -131 -364 -131q-130 0 -243 51.5t-184 144.5q-103 133 -103 319q0 117 46 219.5t131 172.5q142 118 362 118zM589 711q-99 0 -162 -71q-56 -63 -56 -167q0 -111 66 -174q65 -62 154 -62q103 0 171 77
q50 56 50 164q0 110 -62 173q-60 60 -161 60z" />
    <glyph glyph-name="p" unicode="p" horiz-adv-x="1279" 
d="M116 949h311v-90q107 128 295 128q139 0 254 -66q244 -140 244 -454q0 -148 -54.5 -259.5t-156.5 -173.5q-117 -72 -276 -72q-193 0 -306 120v-499h-311v1366zM654 729q-112 0 -180 -97q-47 -68 -47 -169q0 -115 60 -184q61 -72 164 -72q121 0 189 96q48 66 48 163
q0 114 -67 190q-64 73 -167 73z" />
    <glyph glyph-name="q" unicode="q" horiz-adv-x="1276" 
d="M849 949h311v-1366h-311v493q-55 -51 -99 -72q-91 -42 -217 -42q-217 0 -352 151q-121 135 -121 350q0 224 134 371q141 153 366 153q89 0 162 -28q66 -24 127 -94v84zM617 728q-120 0 -184 -108q-41 -68 -41 -152q0 -114 69 -190q65 -71 159 -71q114 0 184 98
q50 71 50 167q0 106 -64 180q-67 76 -173 76z" />
    <glyph glyph-name="r" unicode="r" horiz-adv-x="698" 
d="M116 949h311v-128q31 90 81 125q59 41 137 41q10 0 32 -2v-318q-40 5 -64 5q-47 0 -89.5 -21t-66.5 -55q-30 -44 -30 -150v-446h-311v949z" />
    <glyph glyph-name="s" unicode="s" horiz-adv-x="867" 
d="M796 667h-290q1 11 1 19q0 34 -30 58q-24 20 -60 20q-32 0 -53 -18q-21 -19 -21 -44q0 -31 25 -51t83 -36q168 -45 253 -106q109 -77 109 -225q0 -157 -122 -247q-101 -75 -262 -75q-211 0 -314 126q-65 80 -69 194h296q7 -44 19 -64q21 -33 68 -33q32 0 50 18
q22 21 22 49q0 36 -44 63q-22 14 -114 44q-151 49 -221 121q-75 78 -75 192q0 163 130 248q104 67 253 67q215 0 315 -140q49 -70 51 -180z" />
    <glyph glyph-name="t" unicode="t" horiz-adv-x="604" 
d="M441 696v-377q0 -37 19 -49q21 -14 57 -13h32v-257h-239q-96 0 -138 46t-42 151v499h-97v258h97v235h311v-235h108v-258h-108z" />
    <glyph glyph-name="u" unicode="u" horiz-adv-x="1083" 
d="M669 949h311v-597q0 -149 -50 -225q-58 -88 -172 -130q-93 -35 -214 -35q-220 0 -338 105q-104 92 -104 285v597h311v-575q0 -50 15 -85q14 -31 46 -50t70 -19q71 0 106 55q19 30 19 78v596z" />
    <glyph glyph-name="v" unicode="v" horiz-adv-x="978" 
d="M671 949h317l-340 -949h-319l-340 949h321l183 -490z" />
    <glyph glyph-name="w" unicode="w" horiz-adv-x="1527" 
d="M1223 949h315l-299 -949h-331l-142 515l-141 -515h-340l-296 949h315l167 -520l139 520h298l148 -520z" />
    <glyph glyph-name="x" unicode="x" horiz-adv-x="1016" 
d="M519 217l-136 -217h-364l322 470l-348 479h390l136 -206l127 206h376l-329 -479l329 -470h-376z" />
    <glyph glyph-name="y" unicode="y" horiz-adv-x="990" 
d="M482 452l191 497h328l-519 -1371h-333l170 440l-330 931h330z" />
    <glyph glyph-name="z" unicode="z" horiz-adv-x="881" 
d="M504 258h334v-258h-813l353 691h-324v258h802z" />
    <glyph glyph-name="braceleft" unicode="{" 
d="M508 494q54 -35 76 -67q41 -62 43 -185v-180q2 -89 17 -112q23 -33 85 -42q31 -4 99 -4v-295q-133 -3 -185 -3q-153 0 -211 25q-96 41 -124 139q-16 55 -16 133v282q-1 99 -29 132q-36 41 -85 50v272q56 11 86 49q23 30 28 116v290q0 158 74 224q50 44 125 58q48 8 159 8
q59 0 178 -3v-312h-24q-107 0 -140 -25q-30 -23 -35 -70q-1 -16 -2 -60v-169q0 -119 -38 -178q-24 -35 -81 -73z" />
    <glyph glyph-name="bar" unicode="|" 
d="M341 1365h341v-1706h-341v1706z" />
    <glyph glyph-name="braceright" unicode="}" 
d="M516 495q-54 35 -76 68q-41 61 -43 185v180q-2 89 -17 112q-19 26 -47 34q-48 12 -137 12v295q140 3 185 3q152 0 211 -25q95 -41 124 -139q16 -55 16 -134v-281q1 -98 29 -133q34 -40 85 -49v-272q-56 -11 -86 -50q-23 -30 -28 -115v-291q0 -157 -74 -223
q-49 -44 -125 -58q-47 -8 -157 -8q-66 0 -180 3v312q105 -1 151 17q37 16 44 56q5 23 6 82v169q0 120 38 178q23 35 81 72z" />
    <glyph glyph-name="asciitilde" unicode="~" horiz-adv-x="1365" 
d="M353 1118l-164 137q36 92 83 159q92 131 228 131q48 0 113 -23q55 -19 116 -44q117 -48 151 -48q74 0 138 121l163 -137q-56 -136 -115 -200q-82 -87 -206 -87q-46 0 -100 18q-32 10 -128 51q-102 43 -147 43q-68 0 -132 -121z" />
    <glyph glyph-name="Adieresis" unicode="&#xc4;" horiz-adv-x="1321" 
d="M898 198h-484l-60 -198h-354l451 1365h421l449 -1365h-364zM815 466l-160 508l-159 -508h319zM439 1813q67 0 114 -51q42 -46 42 -108q0 -72 -55 -120q-44 -39 -104 -39q-70 0 -117 51q-42 47 -42 109q0 70 55 119q43 39 107 39zM883 1813q67 0 114 -51q42 -46 42 -108
q0 -72 -55 -120q-44 -39 -104 -39q-70 0 -117 51q-42 47 -42 109q0 70 55 119q43 39 107 39z" />
    <glyph glyph-name="Aring" unicode="&#xc5;" horiz-adv-x="1321" 
d="M898 198h-484l-60 -198h-354l451 1365h421l449 -1365h-364zM815 466l-160 508l-159 -508h319zM664 1842q85 0 148 -65q51 -53 51 -132q0 -92 -67 -148q-60 -50 -136 -50q-89 0 -151 64q-51 54 -51 135q0 89 67 146q59 50 139 50zM659 1735q-41 0 -68 -32q-23 -26 -23 -58
q0 -39 30 -67q26 -24 62 -24q44 0 70 32q23 26 23 59q0 38 -30 66q-25 24 -64 24z" />
    <glyph glyph-name="Ccedilla" unicode="&#xc7;" horiz-adv-x="1304" 
d="M1070 398l196 -231q-108 -91 -200 -131q-142 -63 -310 -63q-314 0 -501 207q-89 97 -137 228t-48 272q0 165 64 312.5t178 246.5q178 153 453 153q177 0 322 -68q90 -42 195 -140l-212 -221q-141 122 -293 122q-172 0 -275 -117q-96 -110 -96 -279q0 -96 35 -179.5
t98 -138.5q106 -91 258 -91q84 0 158 31q60 26 115 87zM569 -437l-143 107q182 81 211 204l289 -79q-117 -168 -357 -232z" />
    <glyph glyph-name="Eacute" unicode="&#xc9;" horiz-adv-x="939" 
d="M400 1097v-279h450v-268h-450v-282h450v-268h-782v1365h782v-268h-450zM510 1769h308l-301 -274h-205z" />
    <glyph glyph-name="Ntilde" unicode="&#xd1;" horiz-adv-x="1421" 
d="M462 777v-777h-332v1365h332l498 -767v767h332v-1365h-332zM895 1762h200q-16 -102 -49 -153q-69 -108 -179 -108q-43 0 -151 35q-91 29 -111 29q-50 0 -51 -63h-199q11 99 45 150q33 50 83 78.5t103 28.5q36 0 123 -31q100 -36 121 -36q46 0 65 70z" />
    <glyph glyph-name="Odieresis" unicode="&#xd6;" horiz-adv-x="1585" 
d="M814 1393q150 0 284 -58.5t235 -168.5q182 -197 182 -473q0 -158 -64 -301t-180 -246q-197 -173 -471 -173q-159 0 -303.5 63t-248.5 178q-178 196 -178 468q0 146 59.5 280.5t169.5 239.5q202 191 515 191zM788 1085q-168 0 -283 -131q-97 -111 -97 -273
q0 -176 117 -290q114 -112 269 -112q169 0 284 128q101 111 101 278q0 182 -126 299q-109 101 -265 101zM571 1813q67 0 114 -51q42 -46 42 -108q0 -72 -55 -120q-44 -39 -104 -39q-70 0 -117 51q-42 47 -42 109q0 70 55 119q43 39 107 39zM1015 1813q67 0 114 -51
q42 -46 42 -108q0 -72 -55 -120q-44 -39 -104 -39q-70 0 -117 51q-42 47 -42 109q0 70 55 119q43 39 107 39z" />
    <glyph glyph-name="Udieresis" unicode="&#xdc;" horiz-adv-x="1310" 
d="M441 1365v-795q0 -146 46 -211q56 -79 169 -79q57 0 106.5 25t72.5 66q34 62 34 199v795h332v-781q0 -300 -142 -453q-69 -76 -173.5 -117t-226.5 -41q-128 0 -238.5 44.5t-183.5 125.5q-78 86 -104 199q-24 110 -24 242v781h332zM433 1813q67 0 114 -51q42 -46 42 -108
q0 -72 -55 -120q-44 -39 -104 -39q-70 0 -117 51q-42 47 -42 109q0 70 55 119q43 39 107 39zM877 1813q67 0 114 -51q42 -46 42 -108q0 -72 -55 -120q-44 -39 -104 -39q-70 0 -117 51q-42 47 -42 109q0 70 55 119q43 39 107 39z" />
    <glyph glyph-name="aacute" unicode="&#xe1;" horiz-adv-x="1274" 
d="M847 846v103h311v-949h-311v106q-125 -144 -322 -144q-225 0 -358 168q-107 135 -107 329q0 116 41.5 221t116.5 177q135 129 333 129q106 0 190 -49q50 -30 106 -91zM615 728q-107 0 -169 -87q-54 -76 -54 -174q0 -120 74 -196q64 -64 152 -64q105 0 173 86
q61 78 61 183q0 89 -48 159q-63 93 -189 93zM668 1387h300l-286 -291h-184z" />
    <glyph glyph-name="agrave" unicode="&#xe0;" horiz-adv-x="1274" 
d="M847 846v103h311v-949h-311v106q-125 -144 -322 -144q-225 0 -358 168q-107 135 -107 329q0 116 41.5 221t116.5 177q135 129 333 129q106 0 190 -49q50 -30 106 -91zM615 728q-107 0 -169 -87q-54 -76 -54 -174q0 -120 74 -196q64 -64 152 -64q105 0 173 86
q61 78 61 183q0 89 -48 159q-63 93 -189 93zM606 1387l170 -291h-184l-286 291h300z" />
    <glyph glyph-name="acircumflex" unicode="&#xe2;" horiz-adv-x="1274" 
d="M847 846v103h311v-949h-311v106q-125 -144 -322 -144q-225 0 -358 168q-107 135 -107 329q0 116 41.5 221t116.5 177q135 129 333 129q106 0 190 -49q50 -30 106 -91zM615 728q-107 0 -169 -87q-54 -76 -54 -174q0 -120 74 -196q64 -64 152 -64q105 0 173 86
q61 78 61 183q0 89 -48 159q-63 93 -189 93zM639 1236l-140 -140h-205l207 291h286l192 -291h-205z" />
    <glyph glyph-name="adieresis" unicode="&#xe4;" horiz-adv-x="1274" 
d="M847 846v103h311v-949h-311v106q-125 -144 -322 -144q-225 0 -358 168q-107 135 -107 329q0 116 41.5 221t116.5 177q135 129 333 129q106 0 190 -49q50 -30 106 -91zM615 728q-107 0 -169 -87q-54 -76 -54 -174q0 -120 74 -196q64 -64 152 -64q105 0 173 86
q61 78 61 183q0 89 -48 159q-63 93 -189 93zM457 1410q67 0 114 -51q40 -44 40 -106q0 -72 -52 -118q-45 -39 -105 -39q-70 0 -117 51q-40 43 -40 107q0 71 52 117q45 39 108 39zM907 1410q67 0 114 -51q40 -44 40 -106q0 -72 -52 -118q-45 -39 -105 -39q-70 0 -117 51
q-40 43 -40 107q0 71 52 117q45 39 108 39z" />
    <glyph glyph-name="atilde" unicode="&#xe3;" horiz-adv-x="1274" 
d="M847 846v103h311v-949h-311v106q-125 -144 -322 -144q-225 0 -358 168q-107 135 -107 329q0 116 41.5 221t116.5 177q135 129 333 129q106 0 190 -49q50 -30 106 -91zM615 728q-107 0 -169 -87q-54 -76 -54 -174q0 -120 74 -196q64 -64 152 -64q105 0 173 86
q61 78 61 183q0 89 -48 159q-63 93 -189 93zM797 1364h198q-10 -89 -48 -150q-65 -107 -172 -107q-54 0 -166 45q-47 19 -60 19q-31 0 -44 -68h-198q13 95 45 151q61 106 176 106q54 0 166 -43q46 -17 62 -17q34 0 41 64z" />
    <glyph glyph-name="aring" unicode="&#xe5;" horiz-adv-x="1274" 
d="M847 846v103h311v-949h-311v106q-125 -144 -322 -144q-225 0 -358 168q-107 135 -107 329q0 116 41.5 221t116.5 177q135 129 333 129q106 0 190 -49q50 -30 106 -91zM615 728q-107 0 -169 -87q-54 -76 -54 -174q0 -120 74 -196q64 -64 152 -64q105 0 173 86
q61 78 61 183q0 89 -48 159q-63 93 -189 93zM636 1445q85 0 148 -64q51 -54 51 -133q0 -91 -67 -148q-60 -49 -136 -49q-89 0 -151 64q-51 54 -51 135q0 88 67 145q59 50 139 50zM631 1338q-41 0 -68 -31q-23 -27 -23 -59q0 -39 30 -66q26 -24 62 -24q44 0 70 31
q23 27 23 60q0 37 -30 65q-25 24 -64 24z" />
    <glyph glyph-name="ccedilla" unicode="&#xe7;" horiz-adv-x="970" 
d="M767 304l186 -199q-162 -143 -372 -143q-105 0 -204.5 39.5t-174.5 110.5q-143 136 -143 357q0 262 190 411q137 107 329 107q207 0 396 -164l-207 -188q-77 77 -175 77q-101 0 -164 -76q-56 -67 -56 -158q0 -64 31 -121.5t83 -88.5q54 -32 122 -32q74 0 159 68z
M444 -419l-125 103q72 34 121 90q36 42 71 100l203 -89q-56 -69 -112 -114q-63 -48 -158 -90z" />
    <glyph glyph-name="eacute" unicode="&#xe9;" horiz-adv-x="1154" 
d="M1100 408h-718q13 -66 52 -105q65 -66 164 -66q70 0 127 37q38 24 60 68l287 -73q-62 -123 -153 -194q-144 -113 -326 -113q-114 0 -218.5 42t-178.5 117q-136 139 -136 358q0 114 42 215t118 170q136 123 356 123q123 0 228.5 -45.5t176.5 -129.5q120 -143 120 -361
q0 -14 -1 -43zM783 573q-13 64 -52 101q-61 55 -154 55q-88 0 -145 -54q-40 -38 -53 -102h404zM608 1387h300l-286 -291h-184z" />
    <glyph glyph-name="egrave" unicode="&#xe8;" horiz-adv-x="1154" 
d="M1100 408h-718q13 -66 52 -105q65 -66 164 -66q70 0 127 37q38 24 60 68l287 -73q-62 -123 -153 -194q-144 -113 -326 -113q-114 0 -218.5 42t-178.5 117q-136 139 -136 358q0 114 42 215t118 170q136 123 356 123q123 0 228.5 -45.5t176.5 -129.5q120 -143 120 -361
q0 -14 -1 -43zM783 573q-13 64 -52 101q-61 55 -154 55q-88 0 -145 -54q-40 -38 -53 -102h404zM547 1387l170 -291h-184l-286 291h300z" />
    <glyph glyph-name="ecircumflex" unicode="&#xea;" horiz-adv-x="1154" 
d="M1100 408h-718q13 -66 52 -105q65 -66 164 -66q70 0 127 37q38 24 60 68l287 -73q-62 -123 -153 -194q-144 -113 -326 -113q-114 0 -218.5 42t-178.5 117q-136 139 -136 358q0 114 42 215t118 170q136 123 356 123q123 0 228.5 -45.5t176.5 -129.5q120 -143 120 -361
q0 -14 -1 -43zM783 573q-13 64 -52 101q-61 55 -154 55q-88 0 -145 -54q-40 -38 -53 -102h404zM579 1236l-140 -140h-205l207 291h286l192 -291h-205z" />
    <glyph glyph-name="edieresis" unicode="&#xeb;" horiz-adv-x="1154" 
d="M1100 408h-718q13 -66 52 -105q65 -66 164 -66q70 0 127 37q38 24 60 68l287 -73q-62 -123 -153 -194q-144 -113 -326 -113q-114 0 -218.5 42t-178.5 117q-136 139 -136 358q0 114 42 215t118 170q136 123 356 123q123 0 228.5 -45.5t176.5 -129.5q120 -143 120 -361
q0 -14 -1 -43zM783 573q-13 64 -52 101q-61 55 -154 55q-88 0 -145 -54q-40 -38 -53 -102h404zM353 1410q67 0 114 -51q40 -44 40 -106q0 -72 -52 -118q-45 -39 -105 -39q-70 0 -117 51q-40 43 -40 107q0 71 52 117q45 39 108 39zM803 1410q67 0 114 -51q40 -44 40 -106
q0 -72 -52 -118q-45 -39 -105 -39q-70 0 -117 51q-40 43 -40 107q0 71 52 117q45 39 108 39z" />
    <glyph glyph-name="iacute" unicode="&#xed;" horiz-adv-x="543" 
d="M427 949v-949h-311v949h311zM302 1387h300l-286 -291h-184z" />
    <glyph glyph-name="igrave" unicode="&#xec;" horiz-adv-x="543" 
d="M427 949v-949h-311v949h311zM241 1387l170 -291h-184l-286 291h300z" />
    <glyph glyph-name="icircumflex" unicode="&#xee;" horiz-adv-x="543" 
d="M427 949v-949h-311v949h311zM274 1236l-140 -140h-205l207 291h286l192 -291h-205z" />
    <glyph glyph-name="idieresis" unicode="&#xef;" horiz-adv-x="543" 
d="M427 949v-949h-311v949h311zM75 1410q67 0 114 -51q40 -44 40 -106q0 -72 -52 -118q-45 -39 -105 -39q-70 0 -117 51q-40 43 -40 107q0 71 52 117q45 39 108 39zM470 1410q67 0 114 -51q40 -44 40 -106q0 -73 -52 -118q-45 -39 -105 -39q-70 0 -117 51q-40 43 -40 107
q0 71 52 117q45 39 108 39z" />
    <glyph glyph-name="ntilde" unicode="&#xf1;" horiz-adv-x="1110" 
d="M116 949h311v-108q43 75 86 103q64 43 157 43q150 0 242 -92q57 -57 72 -132t15 -181v-582h-311v579q0 56 -18 87q-35 63 -111 63q-73 0 -110 -61q-22 -35 -22 -93v-575h-311v949zM715 1364h198q-10 -89 -48 -150q-65 -107 -172 -107q-54 0 -166 45q-47 19 -60 19
q-31 0 -44 -68h-198q13 95 45 151q61 106 176 106q54 0 166 -43q46 -17 62 -17q34 0 41 64z" />
    <glyph glyph-name="oacute" unicode="&#xf3;" horiz-adv-x="1185" 
d="M599 987q242 0 394 -169q132 -146 132 -347q0 -230 -171 -378q-150 -131 -364 -131q-130 0 -243 51.5t-184 144.5q-103 133 -103 319q0 117 46 219.5t131 172.5q142 118 362 118zM589 711q-99 0 -162 -71q-56 -63 -56 -167q0 -111 66 -174q65 -62 154 -62q103 0 171 77
q50 56 50 164q0 110 -62 173q-60 60 -161 60zM623 1387h300l-286 -291h-184z" />
    <glyph glyph-name="ograve" unicode="&#xf2;" horiz-adv-x="1185" 
d="M599 987q242 0 394 -169q132 -146 132 -347q0 -230 -171 -378q-150 -131 -364 -131q-130 0 -243 51.5t-184 144.5q-103 133 -103 319q0 117 46 219.5t131 172.5q142 118 362 118zM589 711q-99 0 -162 -71q-56 -63 -56 -167q0 -111 66 -174q65 -62 154 -62q103 0 171 77
q50 56 50 164q0 110 -62 173q-60 60 -161 60zM562 1387l170 -291h-184l-286 291h300z" />
    <glyph glyph-name="ocircumflex" unicode="&#xf4;" horiz-adv-x="1185" 
d="M599 987q242 0 394 -169q132 -146 132 -347q0 -230 -171 -378q-150 -131 -364 -131q-130 0 -243 51.5t-184 144.5q-103 133 -103 319q0 117 46 219.5t131 172.5q142 118 362 118zM589 711q-99 0 -162 -71q-56 -63 -56 -167q0 -111 66 -174q65 -62 154 -62q103 0 171 77
q50 56 50 164q0 110 -62 173q-60 60 -161 60zM595 1236l-140 -140h-205l207 291h286l192 -291h-205z" />
    <glyph glyph-name="odieresis" unicode="&#xf6;" horiz-adv-x="1185" 
d="M599 987q242 0 394 -169q132 -146 132 -347q0 -230 -171 -378q-150 -131 -364 -131q-130 0 -243 51.5t-184 144.5q-103 133 -103 319q0 117 46 219.5t131 172.5q142 118 362 118zM589 711q-99 0 -162 -71q-56 -63 -56 -167q0 -111 66 -174q65 -62 154 -62q103 0 171 77
q50 56 50 164q0 110 -62 173q-60 60 -161 60zM369 1410q67 0 114 -51q40 -44 40 -106q0 -72 -52 -118q-45 -39 -105 -39q-70 0 -117 51q-40 43 -40 107q0 71 52 117q45 39 108 39zM819 1410q67 0 114 -51q40 -44 40 -106q0 -72 -52 -118q-45 -39 -105 -39q-70 0 -117 51
q-40 43 -40 107q0 71 52 117q45 39 108 39z" />
    <glyph glyph-name="otilde" unicode="&#xf5;" horiz-adv-x="1185" 
d="M599 987q242 0 394 -169q132 -146 132 -347q0 -230 -171 -378q-150 -131 -364 -131q-130 0 -243 51.5t-184 144.5q-103 133 -103 319q0 117 46 219.5t131 172.5q142 118 362 118zM589 711q-99 0 -162 -71q-56 -63 -56 -167q0 -111 66 -174q65 -62 154 -62q103 0 171 77
q50 56 50 164q0 110 -62 173q-60 60 -161 60zM752 1364h198q-10 -89 -48 -150q-65 -107 -172 -107q-54 0 -166 45q-47 19 -60 19q-31 0 -44 -68h-198q13 95 45 151q61 106 176 106q54 0 166 -43q46 -17 62 -17q34 0 41 64z" />
    <glyph glyph-name="uacute" unicode="&#xfa;" horiz-adv-x="1083" 
d="M669 949h311v-597q0 -149 -50 -225q-58 -88 -172 -130q-93 -35 -214 -35q-220 0 -338 105q-104 92 -104 285v597h311v-575q0 -50 15 -85q14 -31 46 -50t70 -19q71 0 106 55q19 30 19 78v596zM572 1387h300l-286 -291h-184z" />
    <glyph glyph-name="ugrave" unicode="&#xf9;" horiz-adv-x="1083" 
d="M669 949h311v-597q0 -149 -50 -225q-58 -88 -172 -130q-93 -35 -214 -35q-220 0 -338 105q-104 92 -104 285v597h311v-575q0 -50 15 -85q14 -31 46 -50t70 -19q71 0 106 55q19 30 19 78v596zM511 1387l170 -291h-184l-286 291h300z" />
    <glyph glyph-name="ucircumflex" unicode="&#xfb;" horiz-adv-x="1083" 
d="M669 949h311v-597q0 -149 -50 -225q-58 -88 -172 -130q-93 -35 -214 -35q-220 0 -338 105q-104 92 -104 285v597h311v-575q0 -50 15 -85q14 -31 46 -50t70 -19q71 0 106 55q19 30 19 78v596zM544 1236l-140 -140h-205l207 291h286l192 -291h-205z" />
    <glyph glyph-name="udieresis" unicode="&#xfc;" horiz-adv-x="1083" 
d="M669 949h311v-597q0 -149 -50 -225q-58 -88 -172 -130q-93 -35 -214 -35q-220 0 -338 105q-104 92 -104 285v597h311v-575q0 -50 15 -85q14 -31 46 -50t70 -19q71 0 106 55q19 30 19 78v596zM317 1410q67 0 114 -51q40 -44 40 -106q0 -72 -52 -118q-45 -39 -105 -39
q-70 0 -117 51q-40 43 -40 107q0 71 52 117q45 39 108 39zM767 1410q67 0 114 -51q40 -44 40 -106q0 -72 -52 -118q-45 -39 -105 -39q-70 0 -117 51q-40 43 -40 107q0 71 52 117q45 39 108 39z" />
    <glyph glyph-name="dagger" unicode="&#x2020;" 
d="M382 1365h259v-341h301v-218h-301v-1188h-259v1188h-300v218h300v341z" />
    <glyph glyph-name="degree" unicode="&#xb0;" 
d="M517 1379q135 0 234 -104q88 -93 88 -224q0 -140 -98 -236q-96 -93 -228 -93q-146 0 -244 107q-85 94 -85 220q0 72 30 139t82 110q95 81 221 81zM507 1251q-72 0 -127 -53q-65 -62 -65 -147q0 -74 48 -131q58 -70 148 -70q77 0 135 56q62 59 62 141q0 84 -55 141
q-60 63 -146 63z" />
    <glyph glyph-name="cent" unicode="&#xa2;" 
d="M647 897v-483q67 7 123 53l183 -186q-123 -114 -306 -131v-213h-102v213q-141 20 -238 83q-109 71 -159.5 172.5t-50.5 248.5q0 215 115 349q92 107 238 142q33 9 95 16v145h102v-145q87 -9 159 -40q75 -35 164 -115l-200 -176q-28 29 -48 41q-27 16 -75 26zM545 897
q-54 -15 -76 -36q-79 -71 -79 -201q0 -99 39 -160.5t116 -85.5v483z" />
    <glyph glyph-name="sterling" unicode="&#xa3;" 
d="M560 770h265v-137h-201q28 -71 28 -112q0 -57 -45 -126q-13 -19 -46 -64q8 -3 47 -16q13 -2 62 -29q119 -66 180 -66q54 0 116 52v-228q-94 -64 -200 -64q-61 0 -127 30q-47 22 -126 69t-127 47q-63 0 -95 -56q-15 -27 -16 -70h-231q7 155 84 254q77 97 202 109
q43 87 43 131q0 83 -68 139h-239v137h132q-44 56 -60 95q-22 57 -22 127q0 184 131 293q118 100 290 100q130 0 239 -62q144 -82 175 -203q13 -51 15 -125h-274q0 60 -26 98q-41 60 -111 60q-51 0 -93 -38q-41 -38 -41 -99q0 -80 68 -166q19 -24 71 -80z" />
    <glyph glyph-name="section" unicode="&#xa7;" 
d="M909 1042h-261q-4 52 -26 83q-38 54 -111 54q-56 0 -91 -34q-34 -33 -34 -76q0 -53 47 -88q42 -32 168 -84q140 -57 192 -90q159 -106 159 -281q0 -218 -221 -326q167 -84 167 -262q0 -140 -98 -238q-112 -110 -299 -110q-229 0 -337 155q-57 82 -63 214h265
q1 -69 34 -108q41 -49 108 -49q58 0 95 40q34 37 34 91q0 70 -61 107q-37 23 -154 65q-108 40 -161.5 68t-92.5 69q-96 97 -96 252q0 154 97 248q54 52 135 72q-180 78 -180 263q0 131 93 219q101 96 285 96q169 0 280 -78q103 -72 122 -209q4 -23 5 -63zM507 671
q-73 0 -125 -50q-53 -49 -53 -120q0 -70 53 -120q52 -49 127 -49q76 0 128 49q53 50 53 120q0 72 -53 120q-53 50 -130 50z" />
    <glyph glyph-name="bullet" unicode="&#x2022;" horiz-adv-x="1365" 
d="M689 978q113 0 196 -83q84 -83 84 -201t-83 -201t-201 -83q-116 0 -199 82q-85 84 -85 202q0 121 84 202q86 82 204 82z" />
    <glyph glyph-name="paragraph" unicode="&#xb6;" 
d="M441 -215v847q-23 -1 -34 -1q-110 0 -195 55q-71 45 -113 125q-44 84 -44 183q0 130 73 229q104 142 345 142h427v-1580h-147v1485h-163v-1485h-149z" />
    <glyph glyph-name="germandbls" unicode="&#xdf;" horiz-adv-x="1125" 
d="M136 691h-85v258h85v100q0 73 35.5 143.5t94.5 114.5q108 81 280 81q168 0 288 -73q68 -41 108 -116q35 -67 35 -144q0 -183 -166 -256q102 -35 166 -113q88 -109 88 -264q0 -185 -94 -313q-94 -127 -280 -127q-90 0 -178 36l47 255q27 -7 46 -7q58 0 99 32
q25 19 41.5 58.5t16.5 80.5q0 92 -69 143q-43 31 -134 39v280q115 8 115 106q0 40 -24 71q-34 43 -90 43q-65 0 -97 -55q-17 -30 -17 -115v-949h-311v691z" />
    <glyph glyph-name="registered" unicode="&#xae;" horiz-adv-x="1570" 
d="M796 1394q190 0 360 -105q169 -105 259 -283q78 -154 78 -324q0 -142 -54 -272.5t-153 -230.5q-100 -100 -230 -154t-270 -54t-270 53.5t-230 152.5q-100 100 -155 231.5t-55 272.5q0 202 105 375q102 169 285 262q150 76 330 76zM780 1251q-105 0 -206 -43t-179 -122
q-164 -166 -164 -403t164 -404q163 -165 390 -165q229 0 391 166t162 401q0 114 -43 221t-119 184q-166 165 -396 165zM486 1084h333q119 0 182 -37q106 -60 106 -184q0 -133 -129 -192q56 -20 85 -68q19 -34 26 -90q2 -15 7 -96q5 -83 20 -119h-189q-13 24 -18 103
q-8 141 -39 172q-34 38 -111 41h-75v-316h-198v786zM684 963v-235h92q67 0 97 24q38 31 38 95q0 116 -124 116h-103z" />
    <glyph glyph-name="copyright" unicode="&#xa9;" horiz-adv-x="1570" 
d="M796 1394q134 0 262 -54.5t227 -152.5q99 -100 153.5 -231.5t54.5 -273.5q0 -141 -54 -272t-153 -231q-100 -100 -230 -154t-270 -54t-270 54t-230 152q-100 100 -155 231.5t-55 272.5q0 203 105 375q102 169 285 262q150 76 330 76zM780 1251q-105 0 -206.5 -43
t-178.5 -122q-78 -79 -121 -184.5t-43 -218.5q0 -237 165 -404q162 -165 390 -165t390 166q162 167 162 401q0 115 -43 221t-119 183q-166 166 -396 166zM1151 607q-10 -126 -84 -212q-99 -117 -280 -117q-190 0 -298 133q-90 111 -90 278q0 176 107 292q109 118 287 118
q167 0 269 -110q74 -79 81 -184h-151q-12 46 -48 76q-58 47 -150 47q-102 0 -154 -81q-41 -64 -41 -160q0 -95 40 -158q53 -80 155 -80q101 0 158 59q36 38 46 99h153z" />
    <glyph glyph-name="trademark" unicode="&#x2122;" horiz-adv-x="1767" 
d="M429 1193v-647h-222v647h-195v172h612v-172h-195zM951 980v-434h-222v819h254l219 -423l218 423h254v-819h-222v434l-250 -477z" />
    <glyph glyph-name="acute" unicode="&#xb4;" 
d="M543 1387h300l-286 -291h-184z" />
    <glyph glyph-name="dieresis" unicode="&#xa8;" 
d="M288 1410q67 0 114 -51q40 -44 40 -106q0 -72 -52 -118q-45 -39 -105 -39q-70 0 -117 51q-40 43 -40 107q0 71 52 117q45 39 108 39zM738 1410q67 0 114 -51q40 -44 40 -106q0 -72 -52 -118q-45 -39 -105 -39q-70 0 -117 51q-40 43 -40 107q0 71 52 117q45 39 108 39z
" />
    <glyph glyph-name="notequal" unicode="&#x2260;" 
d="M523 995l143 268l210 -114l-86 -154h166v-283h-280l-82 -148h361v-283h-464l-124 -228l-209 115l65 113h-155v283h258l83 148h-340v283h454z" />
    <glyph glyph-name="AE" unicode="&#xc6;" horiz-adv-x="1779" 
d="M1252 550v-282h438v-268h-770v240h-455l-124 -240h-355l729 1365h975v-268h-438v-279h438v-268h-438zM920 497v613l-320 -613h320z" />
    <glyph glyph-name="Oslash" unicode="&#xd8;" horiz-adv-x="1582" 
d="M302 155l-143 -130l-75 84l139 128q-76 100 -108 181q-47 117 -47 254q0 222 109 396q100 160 273 247q153 77 331 77q171 0 328 -72q90 -42 164 -113l150 140l74 -88l-142 -132q81 -116 113 -203q45 -123 45 -246q0 -219 -131 -403q-117 -165 -303 -243
q-139 -59 -305 -59q-135 0 -255 46.5t-217 135.5zM537 371q105 -91 245 -91q154 0 273 107q122 111 122 293q0 122 -66 222zM1033 989q-105 96 -239 96q-172 0 -288 -130q-100 -113 -100 -273q0 -133 58 -222z" />
    <glyph glyph-name="infinity" unicode="&#x221e;" horiz-adv-x="1365" 
d="M688 551q-146 -182 -328 -182q-157 0 -250 109q-75 86 -75 218q0 154 104 245q94 80 221 80q178 0 318 -180q136 181 326 181q166 0 259 -119q66 -84 66 -207q0 -155 -103 -246q-91 -81 -219 -81q-184 0 -319 182zM792 696q87 -128 180 -128q57 0 95 40q34 36 34 88
q0 63 -47 100q-37 28 -82 28q-73 0 -138 -73q-9 -10 -26 -32.5t-16 -22.5zM573 695q-88 127 -181 127q-57 0 -95 -40q-34 -36 -34 -88q0 -62 48 -99q36 -28 82 -28q73 0 137 73q9 10 26 32t17 23z" />
    <glyph glyph-name="plusminus" unicode="&#xb1;" 
d="M15 826h414v412h164v-412h415v-158h-415v-394h-164v394h-414v158zM15 191h993v-158h-993v158z" />
    <glyph glyph-name="lessequal" unicode="&#x2264;" 
d="M955 1341v-316l-518 -157l518 -155v-316l-887 331v283zM955 343v-297h-887v297h887z" />
    <glyph glyph-name="greaterequal" unicode="&#x2265;" 
d="M69 397v316l517 155l-518 157v316l887 -330v-283zM68 46v297h887v-297h-887z" />
    <glyph glyph-name="yen" unicode="&#xa5;" 
d="M211 922l-206 443h325l188 -484l189 484h312l-202 -443h161v-150h-231l-76 -170v-15h266v-150h-266v-437h-312v437h-272v150h272v15l-78 170h-235v150h165z" />
    <glyph glyph-name="mu" unicode="&#xb5;" 
d="M55 -350v1333h286v-506q0 -119 29 -170q51 -87 143 -87q106 0 145 106q25 68 25 157v500h286v-983h-286v127q-55 -146 -175 -146q-105 0 -167 118v-449h-286z" />
    <glyph glyph-name="partialdiff" unicode="&#x2202;" 
d="M113 1111l37 248q202 -22 354 -79q132 -50 238 -144t168 -216q80 -161 80 -378q0 -308 -183 -457q-124 -102 -305 -102q-211 0 -342 138q-128 136 -128 332q0 177 112 300q118 131 299 131q93 0 157 -28q35 -15 83 -54q-60 106 -106 147q-64 56 -129 83q-109 44 -195 61
q-57 11 -140 18zM511 648q-71 0 -128 -50q-67 -58 -67 -157q0 -88 60 -148q56 -57 132 -57q72 0 128 52q64 59 64 155q0 97 -61 154q-55 51 -128 51z" />
    <glyph glyph-name="summation" unicode="&#x2211;" horiz-adv-x="1365" 
d="M1282 1536v-532h-289l-35 237h-529l493 -698l-490 -760h544l20 248h304v-543h-1231v339l473 715l-473 654v340h1213z" />
    <glyph glyph-name="product" unicode="&#x220f;" horiz-adv-x="1365" 
d="M35 1536h1294v-257h-146v-1534h146v-257h-562v257h128v1534h-426v-1534h126v-257h-560v257h149v1534h-149v257z" />
    <glyph glyph-name="pi" unicode="&#x3c0;" horiz-adv-x="1297" 
d="M190 0v745h-149v237h1215v-237h-149v-745h-300v745h-317v-745h-300z" />
    <glyph glyph-name="integral" unicode="&#x222b;" 
d="M75 -491l53 304q50 -21 90 -21q85 0 111 71q10 26 10 227v785q1 224 1 225q2 186 82 290q114 146 341 146q75 0 185 -21l-53 -303q-50 20 -91 20q-83 0 -110 -70q-10 -27 -10 -122v-882q0 -244 -2 -277q-13 -185 -116 -283q-112 -107 -317 -107q-104 0 -174 18z" />
    <glyph glyph-name="ordfeminine" unicode="&#xaa;" horiz-adv-x="825" 
d="M535 1071v49h209v-574h-209v50q-74 -72 -192 -72q-142 0 -227 101q-69 82 -69 199q0 148 102 240q85 78 211 78q103 0 175 -71zM399 976q-62 0 -99 -49q-31 -43 -31 -98q0 -68 43 -111q37 -36 89 -36q61 0 101 49q36 44 36 103q0 50 -28 90q-37 52 -111 52z" />
    <glyph glyph-name="ordmasculine" unicode="&#xba;" horiz-adv-x="770" 
d="M390 1142q154 0 249 -101q85 -88 85 -210q0 -140 -110 -229q-95 -78 -230 -78q-82 0 -153.5 31t-117.5 86q-66 81 -66 193q0 149 114 238q90 70 229 70zM384 966q-60 0 -96 -40q-32 -35 -32 -92q0 -64 38 -99t91 -35q60 0 100 43q29 31 29 92q0 62 -36 97q-35 34 -94 34z
" />
    <glyph glyph-name="Omega" unicode="&#x2126;" horiz-adv-x="1365" 
d="M56 0v279h269q-113 71 -173 148q-104 135 -104 331q0 272 195 464q180 177 439 177t440 -177q194 -191 194 -465q0 -208 -118 -348q-56 -66 -158 -130h269v-279h-555v257q100 51 155 140q81 132 81 301q0 181 -89 300q-90 119 -219 119t-218 -119q-90 -120 -90 -296
q0 -324 237 -445v-257h-555z" />
    <glyph glyph-name="ae" unicode="&#xe6;" horiz-adv-x="1954" 
d="M1589 344l286 -83q-61 -115 -135 -180q-136 -119 -300 -119q-91 0 -165 34q-50 23 -105 92v-88h-296v88q-60 -65 -137 -95.5t-181 -30.5q-253 0 -386 165q-110 136 -110 336q0 115 39.5 217t110.5 172q137 135 331 135q203 0 333 -127v89h296v-89q53 63 95 87
q69 40 168 40q103 0 196 -46t159 -130q113 -144 113 -340q0 -25 -2 -67h-729q13 -54 48 -91q72 -76 185 -76q73 0 123 38q29 21 63 69zM1583 569q-37 159 -200 159q-94 0 -152 -56q-34 -32 -61 -103h413zM626 728q-114 0 -185 -99q-49 -69 -49 -156q0 -126 90 -204
q70 -61 156 -61q113 0 183 93q46 60 46 161q0 119 -69 193q-69 73 -172 73z" />
    <glyph glyph-name="oslash" unicode="&#xf8;" horiz-adv-x="1186" 
d="M241 77l-109 -97l-67 74l104 97q-109 131 -109 321q0 253 181 398q145 117 343 117q134 0 240 -46q49 -21 117 -69l107 98l65 -73l-101 -96q114 -160 114 -334q0 -107 -46 -207t-129 -171q-145 -127 -355 -127q-195 0 -355 115zM454 278q67 -42 142 -42q61 0 115.5 30
t82.5 79q29 52 29 128q0 71 -28 127zM729 673q-60 37 -133 37q-68 0 -125.5 -31.5t-82.5 -82.5q-28 -56 -28 -131q0 -54 26 -111z" />
    <glyph glyph-name="questiondown" unicode="&#xbf;" horiz-adv-x="936" 
d="M351 453h314q3 -54 3 -81q0 -102 -36 -159q-25 -39 -66 -75q-7 -6 -92 -74q-55 -43 -74 -72q-18 -28 -18 -59q0 -44 30 -72q29 -26 78 -26q111 0 115 128h287q-3 -119 -41 -198q-48 -99 -137 -151q-101 -58 -233 -58q-102 0 -192.5 38.5t-145.5 105.5q-76 94 -76 230
q0 123 64 208q40 53 108 103q67 48 81 64q32 36 32 83q0 6 -1 32v33zM511 981q75 0 123 -52q46 -50 46 -120q0 -83 -59 -134q-45 -39 -114 -39q-79 0 -126 52q-46 50 -46 122q0 80 59 132q45 39 117 39z" />
    <glyph glyph-name="exclamdown" unicode="&#xa1;" horiz-adv-x="618" 
d="M158 -417v894h303v-894h-303zM313 981q75 0 123 -52q46 -50 46 -120q0 -83 -59 -134q-45 -39 -113 -39q-80 0 -127 52q-46 50 -46 122q0 80 59 132q45 39 117 39z" />
    <glyph glyph-name="logicalnot" unicode="&#xac;" 
d="M625 0v304h-557v297h887v-601h-330z" />
    <glyph glyph-name="radical" unicode="&#x221a;" horiz-adv-x="1365" 
d="M1365 1693v-265h-335l-356 -1428h-375l-115 510h-184v265h366l52 -206q20 -86 39 -293h18q43 326 122 635l197 782h571z" />
    <glyph glyph-name="florin" unicode="&#x192;" 
d="M396 812h-93l24 137h93l27 153q49 283 259 366q98 36 234 34l-51 -289q-113 -10 -131 -111l-27 -153h111l-24 -137h-111l-121 -685q-70 -400 -460 -400h-32l51 289q113 10 131 111z" />
    <glyph glyph-name="approxequal" unicode="&#x2248;" 
d="M180 713l-164 115q37 93 83 159q92 131 228 131q66 0 229 -67q87 -36 103 -40q27 -8 48 -8q44 0 79 28q20 16 59 71l163 -115q-56 -136 -115 -200q-82 -87 -206 -87q-47 0 -102 18q-36 12 -126 51q-101 43 -148 43q-41 0 -74 -30q-25 -21 -57 -69zM180 249l-164 116
q36 92 83 159q92 131 228 131q67 0 229 -67q88 -36 103 -41q27 -7 48 -7q43 0 79 27q19 15 59 71l163 -115q-56 -135 -115 -199q-82 -87 -206 -87q-47 0 -102 18q-34 12 -126 51q-101 43 -149 43q-40 0 -73 -30q-24 -21 -57 -70z" />
    <glyph glyph-name="Delta" unicode="&#x2206;" horiz-adv-x="1338" 
d="M17 0l483 1365h333l487 -1365h-1303zM426 279h478l-235 748z" />
    <glyph glyph-name="guillemotleft" unicode="&#xab;" horiz-adv-x="873" 
d="M257 491l192 -333h-192l-189 333l189 343h192zM598 491l193 -333h-192l-190 333l190 343h192z" />
    <glyph glyph-name="guillemotright" unicode="&#xbb;" horiz-adv-x="873" 
d="M616 501l-193 333h192l190 -333l-190 -343h-192zM275 501l-193 333h192l189 -333l-189 -343h-192z" />
    <glyph glyph-name="ellipsis" unicode="&#x2026;" horiz-adv-x="1690" 
d="M285 314q75 0 123 -52q46 -50 46 -120q0 -83 -59 -134q-45 -39 -113 -39q-79 0 -127 52q-46 50 -46 122q0 80 59 132q45 39 117 39zM848 314q75 0 123 -52q46 -50 46 -120q0 -83 -59 -134q-45 -39 -113 -39q-79 0 -127 52q-46 50 -46 122q0 80 59 132q45 39 117 39z
M1411 314q75 0 123 -52q46 -50 46 -120q0 -83 -59 -134q-45 -39 -113 -39q-79 0 -127 52q-46 50 -46 122q0 80 59 132q45 39 117 39z" />
    <glyph glyph-name="glyph172" 
 />
    <glyph glyph-name="Agrave" unicode="&#xc0;" horiz-adv-x="1321" 
d="M898 198h-484l-60 -198h-354l451 1365h421l449 -1365h-364zM815 466l-160 508l-159 -508h319zM620 1769l198 -274h-205l-301 274h308z" />
    <glyph glyph-name="Atilde" unicode="&#xc3;" horiz-adv-x="1321" 
d="M898 198h-484l-60 -198h-354l451 1365h421l449 -1365h-364zM815 466l-160 508l-159 -508h319zM844 1762h200q-16 -102 -49 -153q-69 -108 -179 -108q-43 0 -151 35q-91 29 -111 29q-50 0 -51 -63h-199q11 99 45 150q33 50 83 78.5t103 28.5q36 0 123 -31q100 -36 121 -36
q46 0 65 70z" />
    <glyph glyph-name="Otilde" unicode="&#xd5;" horiz-adv-x="1585" 
d="M814 1393q150 0 284 -58.5t235 -168.5q182 -197 182 -473q0 -158 -64 -301t-180 -246q-197 -173 -471 -173q-159 0 -303.5 63t-248.5 178q-178 196 -178 468q0 146 59.5 280.5t169.5 239.5q202 191 515 191zM788 1085q-168 0 -283 -131q-97 -111 -97 -273
q0 -176 117 -290q114 -112 269 -112q169 0 284 128q101 111 101 278q0 182 -126 299q-109 101 -265 101zM977 1762h200q-16 -102 -49 -153q-69 -108 -179 -108q-43 0 -151 35q-91 29 -111 29q-50 0 -51 -63h-199q11 99 45 150q33 50 83 78.5t103 28.5q36 0 123 -31
q100 -36 121 -36q46 0 65 70z" />
    <glyph glyph-name="OE" unicode="&#x152;" horiz-adv-x="2057" 
d="M1532 550v-282h437v-268h-763v125q-153 -152 -423 -152q-310 0 -515 215q-193 203 -193 498q0 161 63 301t180 239q196 166 462 166q143 0 269 -51q77 -31 157 -97v121h763v-268h-437v-279h437v-268h-437zM812 1085q-186 0 -308 -146q-93 -112 -93 -261q0 -187 136 -305
q108 -93 261 -93q202 0 319 151q91 118 91 267q0 161 -113 272q-116 115 -293 115z" />
    <glyph glyph-name="oe" unicode="&#x153;" horiz-adv-x="1843" 
d="M1545 337l256 -81q-56 -108 -135 -173q-147 -121 -340 -121q-145 0 -261 60q-54 28 -117 85q-60 -58 -140 -94q-116 -51 -226 -51q-116 0 -217.5 41t-172.5 116q-132 140 -132 357q0 240 161 382q145 129 362 129q233 0 365 -140q148 140 366 140q237 0 378 -155
q107 -118 129 -309q4 -42 5 -123h-710q8 -66 52 -106q64 -58 161 -58q141 0 216 101zM1525 565q-14 59 -47 95q-61 68 -162 68q-162 0 -212 -163h421zM588 712q-97 0 -164 -80q-52 -62 -52 -151q0 -107 69 -178q65 -67 153 -67q93 0 159 71q57 61 57 157t-60 172
q-58 76 -162 76z" />
    <glyph glyph-name="endash" unicode="&#x2013;" 
d="M953 616v-258h-881v258h881z" />
    <glyph glyph-name="emdash" unicode="&#x2014;" horiz-adv-x="1415" 
d="M1415 616v-231h-1415v231h1415z" />
    <glyph glyph-name="quotedblleft" unicode="&#x201c;" horiz-adv-x="920" 
d="M467 924l159 468l214 -50l-96 -487zM64 924l159 468l215 -50l-97 -487z" />
    <glyph glyph-name="quotedblright" unicode="&#x201d;" horiz-adv-x="920" 
d="M453 1322l-160 -467l-214 50l97 487zM855 1322l-159 -467l-214 50l96 487z" />
    <glyph glyph-name="quoteleft" unicode="&#x2018;" horiz-adv-x="498" 
d="M64 961l150 431l205 -49l-91 -446z" />
    <glyph glyph-name="quoteright" unicode="&#x2019;" horiz-adv-x="498" 
d="M434 1328l-150 -431l-205 49l91 446z" />
    <glyph glyph-name="divide" unicode="&#xf7;" 
d="M15 819h993v-158h-993v158zM514 1210q47 0 83 -34q36 -35 36 -86t-37 -87q-35 -34 -83 -34q-49 0 -84 34q-37 36 -37 86q0 53 36 87t86 34zM513 510q51 0 87 -38q32 -34 32 -82q0 -52 -37 -87q-35 -34 -83 -34q-49 0 -84 34q-37 35 -37 87q0 49 32 82q37 38 90 38z" />
    <glyph glyph-name="lozenge" unicode="&#x25ca;" horiz-adv-x="1365" 
d="M683 1419l531 -736l-531 -736l-532 736zM683 1238l-404 -555l404 -554l403 554z" />
    <glyph glyph-name="ydieresis" unicode="&#xff;" horiz-adv-x="990" 
d="M482 452l191 497h328l-519 -1371h-333l170 440l-330 931h330zM271 1410q67 0 114 -51q40 -44 40 -106q0 -72 -52 -118q-45 -39 -105 -39q-70 0 -117 51q-40 43 -40 107q0 71 52 117q45 39 108 39zM721 1410q67 0 114 -51q40 -44 40 -106q0 -72 -52 -118q-45 -39 -105 -39
q-70 0 -117 51q-40 43 -40 107q0 71 52 117q45 39 108 39z" />
    <glyph glyph-name="Ydieresis" unicode="&#x178;" horiz-adv-x="1169" 
d="M754 602v-602h-332v602l-449 763h395l223 -419l217 419h388zM363 1813q67 0 114 -51q42 -46 42 -108q0 -72 -55 -120q-44 -39 -104 -39q-70 0 -117 51q-42 47 -42 109q0 70 55 119q43 39 107 39zM807 1813q67 0 114 -51q42 -46 42 -108q0 -72 -55 -120q-44 -39 -104 -39
q-70 0 -117 51q-42 47 -42 109q0 70 55 119q43 39 107 39z" />
    <glyph glyph-name="fraction" unicode="&#x2215;" horiz-adv-x="262" 
d="M617 1338l-884 -1365l-88 56l883 1363z" />
    <glyph glyph-name="currency" unicode="&#xa4;" horiz-adv-x="1473" 
d="M79 221l208 209q-73 128 -73 264q0 126 80 271l-215 213l175 174l218 -217q143 74 266 74q96 0 186 -37q28 -12 74 -35l216 213l173 -173l-209 -209q82 -138 82 -276q0 -120 -74 -262l209 -208l-172 -175l-208 208q-132 -82 -267 -82q-139 0 -288 81l-208 -206zM735 925
q-91 0 -158 -66q-67 -67 -67 -163t67 -163t161 -67q95 0 161 67q67 68 67 163q0 97 -67 162q-69 67 -164 67z" />
    <glyph glyph-name="guilsinglleft" unicode="&#x2039;" horiz-adv-x="531" 
d="M257 491l192 -333h-192l-189 333l189 343h192z" />
    <glyph glyph-name="guilsinglright" unicode="&#x203a;" horiz-adv-x="531" 
d="M275 501l-193 333h192l189 -333l-189 -343h-192z" />
    <glyph glyph-name="fi" unicode="&#xf001;" horiz-adv-x="1115" 
d="M448 691v-691h-311v691h-94v258h94v16q-1 283 194 366q94 36 227 34v-288q-110 -11 -110 -112v-16h110v-258h-110zM999 949v-949h-311v949h311zM846 1388q73 0 119 -50q44 -48 44 -115q0 -79 -57 -128q-43 -38 -109 -38q-75 0 -121 50q-44 48 -44 117q0 77 57 126
q43 38 111 38z" />
    <glyph glyph-name="fl" unicode="&#xf002;" horiz-adv-x="1115" 
d="M448 691v-691h-311v691h-94v258h94v16q-1 283 194 366q94 36 227 34v-288q-110 -11 -110 -112v-16h110v-258h-110zM999 0h-311v1365h311v-1365z" />
    <glyph glyph-name="daggerdbl" unicode="&#x2021;" 
d="M382 1365h259v-355h301v-218h-301v-581h301v-218h-301v-375h-259v375h-300v218h300v581h-300v218h300v355z" />
    <glyph glyph-name="periodcentered" unicode="&#x2219;" horiz-adv-x="563" 
d="M285 681q75 0 123 -52q46 -50 46 -120q0 -83 -59 -134q-45 -39 -113 -39q-79 0 -127 52q-46 50 -46 122q0 80 59 132q45 39 117 39z" />
    <glyph glyph-name="quotesinglbase" unicode="&#x201a;" horiz-adv-x="517" 
d="M453 244l-160 -468l-214 50l97 488z" />
    <glyph glyph-name="quotedblbase" unicode="&#x201e;" horiz-adv-x="920" 
d="M453 244l-160 -468l-214 50l97 488zM855 244l-159 -468l-214 50l96 488z" />
    <glyph glyph-name="perthousand" unicode="&#x2030;" horiz-adv-x="2191" 
d="M618 1118v-215q0 -138 -75 -204q-71 -64 -193 -64q-136 0 -209 68q-41 39 -53 95q-13 61 -13 145v161q0 148 61 212q72 76 206 76q119 0 195 -65q81 -69 81 -209zM265 1104v-184q0 -63 10 -83q18 -35 74 -35q52 0 69 36q13 25 13 91v175q0 67 -16 91q-19 27 -67 27
q-54 0 -70 -32q-13 -25 -13 -86zM1437 456v-215q0 -137 -75 -204q-72 -64 -193 -64q-136 0 -209 68q-41 40 -53 95q-13 61 -13 146v160q0 149 61 212q73 77 206 77q119 0 195 -65q81 -70 81 -210zM1084 442v-184q0 -63 10 -83q18 -35 74 -35q52 0 69 36q13 26 13 91v175
q0 68 -17 92q-18 27 -66 27q-54 0 -70 -32q-13 -25 -13 -87zM1242 1338l-884 -1365l-88 56l883 1363zM2116 456v-215q0 -137 -75 -204q-72 -64 -193 -64q-135 0 -208 68q-41 39 -53 95q-13 62 -13 146v160q0 149 61 212q72 77 205 77q119 0 195 -65q81 -70 81 -210z
M1764 442v-184q0 -63 10 -83q17 -35 73 -35q52 0 69 36q13 26 13 91v175q0 68 -16 92q-18 27 -67 27q-53 0 -69 -32q-13 -25 -13 -87z" />
    <glyph glyph-name="Acircumflex" unicode="&#xc2;" horiz-adv-x="1321" 
d="M898 198h-484l-60 -198h-354l451 1365h421l449 -1365h-364zM815 466l-160 508l-159 -508h319zM663 1619l-166 -124h-205l236 274h281l219 -274h-205z" />
    <glyph glyph-name="Ecircumflex" unicode="&#xca;" horiz-adv-x="939" 
d="M400 1097v-279h450v-268h-450v-282h450v-268h-782v1365h782v-268h-450zM472 1619l-166 -124h-205l236 274h281l219 -274h-205z" />
    <glyph glyph-name="Aacute" unicode="&#xc1;" horiz-adv-x="1321" 
d="M898 198h-484l-60 -198h-354l451 1365h421l449 -1365h-364zM815 466l-160 508l-159 -508h319zM701 1769h308l-301 -274h-205z" />
    <glyph glyph-name="Edieresis" unicode="&#xcb;" horiz-adv-x="939" 
d="M400 1097v-279h450v-268h-450v-282h450v-268h-782v1365h782v-268h-450zM248 1813q67 0 114 -51q42 -46 42 -108q0 -72 -55 -120q-44 -39 -104 -39q-70 0 -117 51q-42 47 -42 109q0 70 55 119q43 39 107 39zM692 1813q67 0 114 -51q42 -46 42 -108q0 -72 -55 -120
q-44 -39 -104 -39q-70 0 -117 51q-42 47 -42 109q0 70 55 119q43 39 107 39z" />
    <glyph glyph-name="Egrave" unicode="&#xc8;" horiz-adv-x="939" 
d="M400 1097v-279h450v-268h-450v-282h450v-268h-782v1365h782v-268h-450zM429 1769l198 -274h-205l-301 274h308z" />
    <glyph glyph-name="Iacute" unicode="&#xcd;" horiz-adv-x="592" 
d="M462 1365v-1365h-332v1365h332zM337 1769h308l-301 -274h-205z" />
    <glyph glyph-name="Icircumflex" unicode="&#xce;" horiz-adv-x="591" 
d="M462 1365v-1365h-332v1365h332zM299 1619l-166 -124h-205l236 274h281l219 -274h-205z" />
    <glyph glyph-name="Idieresis" unicode="&#xcf;" horiz-adv-x="591" 
d="M462 1365v-1365h-332v1365h332zM102 1813q67 0 114 -51q42 -46 42 -108q0 -72 -55 -120q-44 -39 -104 -39q-70 0 -117 51q-42 47 -42 109q0 70 55 119q43 39 107 39zM491 1813q67 0 114 -51q42 -46 42 -108q0 -72 -55 -120q-44 -39 -104 -39q-70 0 -117 51
q-42 47 -42 109q0 70 55 119q43 39 107 39z" />
    <glyph glyph-name="Igrave" unicode="&#xcc;" horiz-adv-x="592" 
d="M461 1365v-1365h-332v1365h332zM255 1769l198 -274h-205l-301 274h308z" />
    <glyph glyph-name="Oacute" unicode="&#xd3;" horiz-adv-x="1585" 
d="M814 1393q150 0 284 -58.5t235 -168.5q182 -197 182 -473q0 -158 -64 -301t-180 -246q-197 -173 -471 -173q-159 0 -303.5 63t-248.5 178q-178 196 -178 468q0 146 59.5 280.5t169.5 239.5q202 191 515 191zM788 1085q-168 0 -283 -131q-97 -111 -97 -273
q0 -176 117 -290q114 -112 269 -112q169 0 284 128q101 111 101 278q0 182 -126 299q-109 101 -265 101zM834 1769h308l-301 -274h-205z" />
    <glyph glyph-name="Ocircumflex" unicode="&#xd4;" horiz-adv-x="1585" 
d="M814 1393q150 0 284 -58.5t235 -168.5q182 -197 182 -473q0 -158 -64 -301t-180 -246q-197 -173 -471 -173q-159 0 -303.5 63t-248.5 178q-178 196 -178 468q0 146 59.5 280.5t169.5 239.5q202 191 515 191zM788 1085q-168 0 -283 -131q-97 -111 -97 -273
q0 -176 117 -290q114 -112 269 -112q169 0 284 128q101 111 101 278q0 182 -126 299q-109 101 -265 101zM796 1619l-166 -124h-205l236 274h281l219 -274h-205z" />
    <glyph glyph-name="apple" unicode="&#xf000;" horiz-adv-x="1365" 
d="M984 1416v-20q0 -162 -127 -266q-80 -65 -146 -68q-13 -1 -31 -1q0 141 82 239q91 104 222 116zM1277 935q-65 -49 -98 -92q-67 -84 -67 -192q0 -150 111 -250q34 -31 92 -56q-65 -161 -139 -256q-110 -143 -208 -143q-39 0 -82 18l-83 34q-17 7 -75 7q-73 0 -98 -10
l-87 -35q-41 -17 -79 -17q-54 0 -113.5 43.5t-112.5 123.5q-172 256 -172 526q0 176 100 306q103 135 281 135q67 0 160 -36q68 -26 101 -26q31 0 85 21q71 27 101 35q36 10 87 10q189 0 296 -146z" />
    <glyph glyph-name="Ograve" unicode="&#xd2;" horiz-adv-x="1585" 
d="M814 1393q150 0 284 -58.5t235 -168.5q182 -197 182 -473q0 -158 -64 -301t-180 -246q-197 -173 -471 -173q-159 0 -303.5 63t-248.5 178q-178 196 -178 468q0 146 59.5 280.5t169.5 239.5q202 191 515 191zM788 1085q-168 0 -283 -131q-97 -111 -97 -273
q0 -176 117 -290q114 -112 269 -112q169 0 284 128q101 111 101 278q0 182 -126 299q-109 101 -265 101zM752 1769l198 -274h-205l-301 274h308z" />
    <glyph glyph-name="Uacute" unicode="&#xda;" horiz-adv-x="1310" 
d="M441 1365v-795q0 -146 46 -211q56 -79 169 -79q57 0 106.5 25t72.5 66q34 62 34 199v795h332v-781q0 -300 -142 -453q-69 -76 -173.5 -117t-226.5 -41q-128 0 -238.5 44.5t-183.5 125.5q-78 86 -104 199q-24 110 -24 242v781h332zM696 1769h308l-301 -274h-205z" />
    <glyph glyph-name="Ucircumflex" unicode="&#xdb;" horiz-adv-x="1310" 
d="M441 1365v-795q0 -146 46 -211q56 -79 169 -79q57 0 106.5 25t72.5 66q34 62 34 199v795h332v-781q0 -300 -142 -453q-69 -76 -173.5 -117t-226.5 -41q-128 0 -238.5 44.5t-183.5 125.5q-78 86 -104 199q-24 110 -24 242v781h332zM658 1619l-166 -124h-205l236 274h281
l219 -274h-205z" />
    <glyph glyph-name="Ugrave" unicode="&#xd9;" horiz-adv-x="1310" 
d="M441 1365v-795q0 -146 46 -211q56 -79 169 -79q57 0 106.5 25t72.5 66q34 62 34 199v795h332v-781q0 -300 -142 -453q-69 -76 -173.5 -117t-226.5 -41q-128 0 -238.5 44.5t-183.5 125.5q-78 86 -104 199q-24 110 -24 242v781h332zM614 1769l198 -274h-205l-301 274h308z
" />
    <glyph glyph-name="dotlessi" unicode="&#x131;" horiz-adv-x="543" 
d="M427 949v-949h-311v949h311z" />
    <glyph glyph-name="circumflex" unicode="&#x2c6;" 
d="M515 1236l-140 -140h-205l207 291h286l192 -291h-205z" />
    <glyph glyph-name="tilde" unicode="&#x2dc;" 
d="M672 1364h198q-10 -89 -48 -150q-65 -107 -172 -107q-54 0 -166 45q-47 19 -60 19q-31 0 -44 -68h-198q13 95 45 151q61 106 176 106q54 0 166 -43q46 -17 62 -17q34 0 41 64z" />
    <glyph glyph-name="macron" unicode="&#x2c9;" 
d="M181 1154v176h662v-176h-662z" />
    <glyph glyph-name="breve" unicode="&#x2d8;" 
d="M652 1381h205q-13 -87 -53 -145q-96 -141 -292 -141q-195 0 -291 141q-40 58 -53 145h205q12 -44 28 -66q35 -44 111 -44t111 44q17 22 29 66z" />
    <glyph glyph-name="dotaccent" unicode="&#x2d9;" 
d="M513 1410q67 0 114 -51q40 -44 40 -106q0 -72 -52 -118q-45 -39 -105 -39q-70 0 -117 51q-40 43 -40 107q0 71 52 117q45 39 108 39z" />
    <glyph glyph-name="ring" unicode="&#x2da;" 
d="M516 1445q85 0 148 -64q51 -54 51 -133q0 -91 -67 -148q-60 -49 -136 -49q-89 0 -151 64q-51 54 -51 135q0 88 67 145q59 50 139 50zM511 1338q-41 0 -68 -31q-23 -27 -23 -59q0 -39 30 -66q26 -24 62 -24q44 0 70 31q23 27 23 60q0 37 -30 65q-25 24 -64 24z" />
    <glyph glyph-name="cedilla" unicode="&#xb8;" 
d="M440 -419l-125 103q72 34 121 90q36 42 71 100l203 -89q-56 -69 -112 -114q-63 -48 -158 -90z" />
    <glyph glyph-name="hungarumlaut" unicode="&#x2dd;" 
d="M367 1381h261l-250 -285h-158zM749 1381h260l-250 -285h-158z" />
    <glyph glyph-name="ogonek" unicode="&#x2db;" 
d="M460 0h143q-84 -84 -84 -134q0 -27 23 -44q19 -14 56 -14q30 0 60 10l15 -134q-62 -18 -122 -18q-87 0 -139 37q-61 43 -61 116q0 99 109 181z" />
    <glyph glyph-name="caron" unicode="&#x2c7;" 
d="M510 1246l140 141h205l-207 -291h-286l-192 291h205z" />
    <glyph glyph-name="Lslash" unicode="&#x141;" horiz-adv-x="947" 
d="M129 743v622h332v-465l177 119v-282l-177 -115v-354h445v-268h-777v464l-109 -77v282z" />
    <glyph glyph-name="lslash" unicode="&#x142;" horiz-adv-x="570" 
d="M130 740v625h311v-460l102 70v-254l-102 -66v-655h-311v490l-102 -70v254z" />
    <glyph glyph-name="Scaron" unicode="&#x160;" horiz-adv-x="1098" 
d="M55 414h325q-1 -14 -1 -24q0 -41 30 -72q52 -52 132 -52q66 0 108 38q33 30 33 71q0 52 -55 87q-35 24 -142 61q-196 71 -298 159q-119 102 -119 283q0 200 136 315q133 112 337 112q198 0 328 -107q131 -108 160 -323h-338q-15 137 -152 137q-73 0 -108 -38
q-28 -30 -28 -70q0 -61 63 -99q31 -19 156 -67q210 -78 293 -154q115 -105 115 -274q0 -224 -174 -338q-132 -86 -316 -86q-145 0 -256.5 54.5t-171.5 156.5q-57 94 -57 230zM546 1645l166 124h205l-235 -274h-282l-219 274h205z" />
    <glyph glyph-name="scaron" unicode="&#x161;" horiz-adv-x="867" 
d="M796 667h-290q1 11 1 19q0 34 -30 58q-24 20 -60 20q-32 0 -53 -18q-21 -19 -21 -44q0 -31 25 -51t83 -36q168 -45 253 -106q109 -77 109 -225q0 -157 -122 -247q-101 -75 -262 -75q-211 0 -314 126q-65 80 -69 194h296q7 -44 19 -64q21 -33 68 -33q32 0 50 18
q22 21 22 49q0 36 -44 63q-22 14 -114 44q-151 49 -221 121q-75 78 -75 192q0 163 130 248q104 67 253 67q215 0 315 -140q49 -70 51 -180zM431 1246l140 141h205l-207 -291h-286l-192 291h205z" />
    <glyph glyph-name="Zcaron" unicode="&#x17d;" horiz-adv-x="1140" 
d="M542 268h518v-268h-1033l572 1097h-507v268h1020zM566 1645l166 124h205l-235 -274h-282l-219 274h205z" />
    <glyph glyph-name="zcaron" unicode="&#x17e;" horiz-adv-x="881" 
d="M504 258h334v-258h-813l353 691h-324v258h802zM438 1246l140 141h205l-207 -291h-286l-192 291h205z" />
    <glyph glyph-name="brokenbar" unicode="&#xa6;" 
d="M341 1365h341v-728h-341v728zM341 314h341v-655h-341v655z" />
    <glyph glyph-name="Eth" unicode="&#xd0;" horiz-adv-x="1327" 
d="M130 819v546h400q246 0 385 -69q172 -87 264 -260q79 -151 79 -340q0 -230 -111 -410q-177 -286 -580 -286h-437v561h-123v258h123zM462 819h198v-258h-198v-289h51q163 0 269 90q66 57 103 142t37 180q0 129 -64 239q-57 97 -165 142q-82 34 -167 34h-64v-280z" />
    <glyph glyph-name="eth" unicode="&#xf0;" horiz-adv-x="1186" 
d="M349 1196l143 76q-37 28 -97.5 57t-114.5 43l52 90q157 -25 308 -110l212 114l68 -115l-148 -75q126 -92 199 -211q155 -252 155 -551q0 -286 -177 -430q-149 -122 -357 -122q-118 0 -223.5 42.5t-177.5 119.5q-132 138 -132 348q0 192 113 330q122 150 338 178
q40 5 83 5q74 0 156 -20q-29 76 -61 124q-27 40 -82 97l-196 -106zM588 709q-113 0 -173 -85q-43 -61 -43 -151q0 -114 67 -177q63 -59 153 -59q102 0 169 74q49 53 49 166q0 111 -60 172q-59 60 -162 60z" />
    <glyph glyph-name="Yacute" unicode="&#xdd;" horiz-adv-x="1169" 
d="M754 602v-602h-332v602l-449 763h395l223 -419l217 419h388zM626 1769h308l-301 -274h-205z" />
    <glyph glyph-name="yacute" unicode="&#xfd;" horiz-adv-x="990" 
d="M482 452l191 497h328l-519 -1371h-333l170 440l-330 931h330zM526 1387h300l-286 -291h-184z" />
    <glyph glyph-name="Thorn" unicode="&#xde;" horiz-adv-x="1160" 
d="M462 307v-307h-332v1365h332v-136h138q247 0 381 -122q127 -115 127 -327q0 -112 -41 -208t-115 -158q-127 -107 -333 -107h-157zM462 579h92q72 0 119 23q98 49 98 165q0 105 -77 157q-49 32 -118 32h-114v-377z" />
    <glyph glyph-name="thorn" unicode="&#xfe;" horiz-adv-x="1279" 
d="M116 1365h311v-506q106 128 295 128q139 0 254 -66q244 -140 244 -454q0 -148 -54.5 -259.5t-156.5 -173.5q-117 -72 -276 -72q-193 0 -306 120v-499h-311v1782zM654 729q-112 0 -180 -97q-47 -68 -47 -169q0 -115 60 -184q61 -72 164 -72q121 0 189 96q48 66 48 163
q0 114 -67 190q-64 73 -167 73z" />
    <glyph glyph-name="minus" unicode="&#x2212;" 
d="M15 819h993v-158h-993v158z" />
    <glyph glyph-name="multiply" unicode="&#xd7;" 
d="M210 1155l300 -303l304 307l116 -116l-307 -304l304 -302l-111 -111l-302 304l-304 -307l-116 116l307 304l-302 300z" />
    <glyph glyph-name="onesuperior" unicode="&#xb9;" horiz-adv-x="679" 
d="M297 1114l-139 -58v182l349 153v-845h-210v568z" />
    <glyph glyph-name="twosuperior" unicode="&#xb2;" horiz-adv-x="679" 
d="M383 719h209v-173h-562l308 454q65 95 65 135q0 28 -18 46q-21 21 -57 21q-59 0 -77 -47q-10 -25 -11 -79h-191q-1 18 -1 28q0 133 93 212q77 66 198 66q136 0 216 -82q59 -59 59 -146q0 -66 -26 -121q-29 -63 -85 -143z" />
    <glyph glyph-name="threesuperior" unicode="&#xb3;" horiz-adv-x="679" 
d="M292 1197h-215v168h561l-232 -302q74 -11 126 -54q86 -71 86 -195q0 -127 -89 -210q-81 -74 -205 -74q-78 0 -142.5 31.5t-99.5 87.5q-35 53 -42 148h189q9 -89 90 -89q44 0 76 33q23 23 23 61q0 41 -23 66q-29 32 -76 32q-37 0 -66 -20l-127 99z" />
    <glyph glyph-name="onehalf" unicode="&#xbd;" horiz-adv-x="1620" 
d="M297 1114l-139 -58v182l349 153v-845h-210v568zM1296 1338l-884 -1365l-88 56l883 1363zM1324 173h209v-173h-562l308 454q65 95 65 136q0 28 -18 46q-21 21 -57 21q-59 0 -77 -48q-10 -25 -11 -79h-191q-1 19 -1 28q0 133 93 213q76 66 198 66q136 0 216 -82
q59 -59 59 -146q0 -67 -26 -121q-30 -65 -85 -144z" />
    <glyph glyph-name="onequarter" unicode="&#xbc;" horiz-adv-x="1620" 
d="M297 1114l-139 -58v182l349 153v-845h-210v568zM1296 1338l-884 -1365l-88 56l883 1363zM1297 157h-303v163l265 499h239v-494h68v-168h-68v-157h-201v157zM1308 318v269l-148 -269h148z" />
    <glyph glyph-name="threequarters" unicode="&#xbe;" horiz-adv-x="1620" 
d="M292 1197h-215v168h561l-232 -302q74 -11 126 -54q86 -71 86 -195q0 -127 -89 -210q-81 -74 -205 -74q-78 0 -142.5 31.5t-99.5 87.5q-35 53 -42 148h189q9 -89 90 -89q44 0 76 33q23 23 23 61q0 41 -23 66q-29 32 -76 32q-37 0 -66 -20l-127 99zM1296 1338l-884 -1365
l-88 56l883 1363zM1297 157h-303v163l265 499h239v-494h68v-168h-68v-157h-201v157zM1308 318v269l-148 -269h148z" />
    <glyph glyph-name="franc" unicode="&#x20a3;" horiz-adv-x="1460" 
d="M879 818v131h311v-129q31 91 81 126q59 41 137 41q10 0 32 -2v-318q-40 5 -64 5q-47 0 -89.5 -21t-66.5 -55q-30 -44 -30 -149v-447h-311v550h-417v-550h-332v1365h786v-268h-454v-279h417z" />
    <glyph glyph-name="Gbreve" unicode="&#x11e;" horiz-adv-x="1560" 
d="M410 1767h205q24 -39 45 -57q47 -40 120 -40q74 0 121 40q21 19 45 57h204q-28 -92 -76 -147q-110 -125 -294 -125t-294 125q-47 55 -76 147zM812 779h699q1 -45 1 -75q0 -330 -226 -538q-211 -193 -501 -193q-149 0 -284.5 56t-236.5 159q-194 198 -194 494
q0 308 212 514q203 196 499 196q220 0 406 -117q94 -59 169 -152l-251 -196q-127 158 -312 158q-210 0 -316 -168q-71 -112 -71 -238q0 -191 141 -311q111 -94 259 -94q151 0 259 107q54 52 82 130h-335v268z" />
    <glyph glyph-name="gbreve" unicode="&#x11f;" horiz-adv-x="1225" 
d="M752 1381h205q-13 -87 -53 -145q-96 -141 -292 -141q-195 0 -291 141q-40 58 -53 145h205q12 -44 28 -66q35 -44 111 -44t111 44q17 22 29 66zM804 853v96h304v-845q0 -215 -56 -321q-65 -124 -203 -190q-126 -59 -282 -59q-282 0 -490 196l188 192q118 -130 286 -130
q122 0 186 70q67 72 67 195v47q-127 -142 -327 -142q-98 0 -190 43t-156 119q-109 130 -109 341q0 119 40 223.5t112 173.5q130 125 337 125q182 0 293 -134zM573 712q-112 0 -176 -90q-43 -60 -43 -143q0 -113 72 -183q61 -60 158 -60q109 0 174 74q41 47 41 142
q0 138 -69 202q-63 58 -157 58z" />
    <glyph glyph-name="Idot" unicode="&#x130;" horiz-adv-x="592" 
d="M297 1813q67 0 114 -51q42 -46 42 -108q0 -72 -55 -120q-44 -39 -104 -39q-70 0 -117 51q-42 47 -42 109q0 70 55 119q43 39 107 39zM462 1365v-1365h-332v1365h332z" />
    <glyph glyph-name="Scedilla" unicode="&#x15e;" horiz-adv-x="1271" 
d="M667 -30l-53 -85q69 12 95 12q86 0 138 -42q57 -45 57 -120q0 -95 -89 -153q-67 -44 -174 -44q-136 0 -282 58l43 92q116 -46 201 -46q53 0 81 25q27 24 27 59q0 43 -36 64q-25 14 -62 14q-38 0 -95 -18l-52 46l90 142q-240 22 -367 139q-145 126 -145 346h343
q4 -64 16 -96q50 -135 251 -135q112 0 173 50q54 44 54 112q0 56 -43 87q-43 30 -263 95q-194 56 -271 90q-209 93 -209 321q0 207 177 321q142 91 356 91q179 0 313 -63q224 -105 229 -374h-323q-2 74 -46 119q-59 60 -184 60q-78 0 -129 -27q-64 -35 -64 -102
q0 -64 53 -91q38 -20 255 -78q231 -62 318 -115q170 -104 170 -306q0 -181 -119 -297q-144 -140 -434 -151z" />
    <glyph glyph-name="scedilla" unicode="&#x15f;" horiz-adv-x="1032" 
d="M538 -27l-50 -80q56 10 88 10q76 0 126 -37q55 -41 55 -110q0 -91 -81 -142q-67 -42 -163 -42q-130 0 -260 53l38 84q110 -41 190 -41q41 0 66 17q33 23 33 63q0 36 -30 58q-23 16 -59 16q-35 0 -89 -19l-49 42l84 131q-139 8 -245 70q-154 93 -162 285h295
q12 -160 188 -160q82 0 122 32q41 32 41 80q0 57 -60 83q-33 14 -159 40q-204 44 -283 89q-120 68 -120 217q0 151 125 230q113 72 325 72q266 0 380 -126q61 -67 69 -190h-283q-7 52 -28 80q-37 49 -141 49q-142 0 -142 -92q0 -50 50 -74q34 -17 190 -47q179 -34 266 -85
q116 -68 116 -222q0 -203 -210 -291q-90 -38 -233 -43z" />
    <glyph glyph-name="Cacute" unicode="&#x106;" horiz-adv-x="1304" 
d="M693 1769h308l-301 -274h-205zM1070 398l196 -231q-108 -91 -200 -131q-142 -63 -310 -63q-314 0 -501 207q-89 97 -137 228t-48 272q0 165 64 312.5t178 246.5q178 153 453 153q177 0 322 -68q90 -42 195 -140l-212 -221q-141 122 -293 122q-172 0 -275 -117
q-96 -110 -96 -279q0 -96 35 -179.5t98 -138.5q106 -91 258 -91q84 0 158 31q60 26 115 87z" />
    <glyph glyph-name="cacute" unicode="&#x107;" horiz-adv-x="970" 
d="M515 1387h300l-286 -291h-184zM767 304l186 -199q-162 -143 -372 -143q-105 0 -204.5 39.5t-174.5 110.5q-143 136 -143 357q0 262 190 411q137 107 329 107q207 0 396 -164l-207 -188q-77 77 -175 77q-101 0 -164 -76q-56 -67 -56 -158q0 -64 31 -121.5t83 -88.5
q54 -32 122 -32q74 0 159 68z" />
    <glyph glyph-name="Ccaron" unicode="&#x10c;" horiz-adv-x="1304" 
d="M649 1645l166 124h205l-235 -274h-282l-219 274h205zM1070 398l196 -231q-108 -91 -200 -131q-142 -63 -310 -63q-314 0 -501 207q-89 97 -137 228t-48 272q0 165 64 312.5t178 246.5q178 153 453 153q177 0 322 -68q90 -42 195 -140l-212 -221q-141 122 -293 122
q-172 0 -275 -117q-96 -110 -96 -279q0 -96 35 -179.5t98 -138.5q106 -91 258 -91q84 0 158 31q60 26 115 87z" />
    <glyph glyph-name="ccaron" unicode="&#x10d;" horiz-adv-x="970" 
d="M482 1246l140 141h205l-207 -291h-286l-192 291h205zM767 304l186 -199q-162 -143 -372 -143q-105 0 -204.5 39.5t-174.5 110.5q-143 136 -143 357q0 262 190 411q137 107 329 107q207 0 396 -164l-207 -188q-77 77 -175 77q-101 0 -164 -76q-56 -67 -56 -158
q0 -64 31 -121.5t83 -88.5q54 -32 122 -32q74 0 159 68z" />
    <glyph glyph-name="dmacron" unicode="&#x111;" horiz-adv-x="1276" 
d="M849 1268v97h311v-97h109v-227h-109v-1041h-311v106q-55 -76 -111 -103q-83 -41 -195 -41q-232 0 -367 154q-116 134 -116 348q0 245 156 389q146 133 331 133q88 0 168 -31q65 -25 134 -93v179h-191v227h191zM618 728q-116 0 -183 -106q-43 -69 -43 -159q0 -116 70 -186
q69 -70 163 -70q110 0 173 91q51 73 51 171q0 104 -62 181q-63 78 -169 78z" />
    <glyph glyph-name="nbspace" unicode="&#xa0;" horiz-adv-x="614" 
 />
    <glyph glyph-name="sfthyphen" unicode="&#xad;" horiz-adv-x="468" 
d="M468 637v-272h-468v272h468z" />
    <glyph glyph-name="overscore" unicode="&#xaf;" 
d="M0 1805h1024v-199h-1024v199z" />
    <glyph glyph-name="middot" unicode="&#xb7;" horiz-adv-x="563" 
d="M285 681q75 0 123 -52q46 -50 46 -120q0 -83 -59 -134q-45 -39 -113 -39q-79 0 -127 52q-46 50 -46 122q0 80 59 132q45 39 117 39z" />
    <glyph glyph-name="glyph262" 
d="M316 1410q67 0 114 -51q40 -44 40 -106q0 -72 -52 -118q-45 -39 -105 -39q-70 0 -117 51q-40 43 -40 107q0 71 52 117q45 39 108 39zM711 1410q67 0 114 -51q40 -44 40 -106q0 -73 -52 -118q-45 -39 -105 -39q-70 0 -117 51q-40 43 -40 107q0 71 52 117q45 39 108 39z
" />
    <glyph glyph-name="glyph263" 
d="M509 1645l166 124h205l-235 -274h-282l-219 274h205z" />
    <glyph glyph-name="glyph264" 
d="M142 1767h205q24 -39 45 -57q47 -40 120 -40q74 0 121 40q21 19 45 57h204q-28 -92 -76 -147q-110 -125 -294 -125t-294 125q-47 55 -76 147z" />
    <glyph glyph-name="glyph265" 
d="M515 1619l-166 -124h-205l236 274h281l219 -274h-205z" />
    <glyph glyph-name="glyph266" 
d="M472 1769l198 -274h-205l-301 274h308z" />
    <glyph glyph-name="glyph267" 
d="M553 1769h308l-301 -274h-205z" />
    <glyph glyph-name="glyph268" 
d="M291 1813q67 0 114 -51q42 -46 42 -108q0 -72 -55 -120q-44 -39 -104 -39q-70 0 -117 51q-42 47 -42 109q0 70 55 119q43 39 107 39zM735 1813q67 0 114 -51q42 -46 42 -108q0 -72 -55 -120q-44 -39 -104 -39q-70 0 -117 51q-42 47 -42 109q0 70 55 119q43 39 107 39z
" />
    <glyph glyph-name="glyph269" 
d="M696 1762h200q-16 -102 -49 -153q-69 -108 -179 -108q-43 0 -151 35q-91 29 -111 29q-50 0 -51 -63h-199q11 99 45 150q33 50 83 78.5t103 28.5q36 0 123 -31q100 -36 121 -36q46 0 65 70z" />
    <glyph glyph-name="glyph270" 
d="M318 1813q67 0 114 -51q42 -46 42 -108q0 -72 -55 -120q-44 -39 -104 -39q-70 0 -117 51q-42 47 -42 109q0 70 55 119q43 39 107 39zM707 1813q67 0 114 -51q42 -46 42 -108q0 -72 -55 -120q-44 -39 -104 -39q-70 0 -117 51q-42 47 -42 109q0 70 55 119q43 39 107 39z
" />
    <glyph glyph-name="glyph271" 
d="M516 1842q85 0 148 -65q51 -53 51 -132q0 -92 -67 -148q-60 -50 -136 -50q-89 0 -151 64q-51 54 -51 135q0 89 67 146q59 50 139 50zM511 1735q-41 0 -68 -32q-23 -26 -23 -58q0 -39 30 -67q26 -24 62 -24q44 0 70 32q23 26 23 59q0 38 -30 66q-25 24 -64 24z" />
    <glyph glyph-name="glyph272" 
d="M513 1813q67 0 114 -51q42 -46 42 -108q0 -72 -55 -120q-44 -39 -104 -39q-70 0 -117 51q-42 47 -42 109q0 70 55 119q43 39 107 39z" />
    <glyph glyph-name="glyph273" horiz-adv-x="614" 
 />
    </font>
</defs>
</svg>
